<svg width="391" height="93" viewBox="0 0 391 93" fill="none" xmlns="http://www.w3.org/2000/svg">
<path d="M307.664 90.8421V0.654785H320.19V90.8421H307.664Z" fill="#1E90FF"/>
<path d="M360.938 92.3452C354.925 92.3452 349.581 90.9674 344.904 88.2117C340.228 85.4559 336.554 81.6146 333.881 76.6877C331.293 71.7608 329.998 66.0406 329.998 59.5271C329.998 52.8465 331.293 47.0428 333.881 42.1159C336.554 37.1055 340.228 33.2224 344.904 30.4667C349.581 27.6275 355.009 26.2079 361.188 26.2079C367.368 26.2079 372.67 27.5857 377.096 30.3415C381.522 33.0972 384.946 36.7715 387.367 41.3643C389.789 45.8737 391 50.8841 391 56.3956C391 57.2306 390.958 58.1492 390.875 59.1513C390.875 60.0699 390.833 61.1137 390.749 62.2828H339.142V53.3893H378.474C378.223 48.1284 376.47 44.0366 373.213 41.1138C369.956 38.1076 365.906 36.6045 361.063 36.6045C357.639 36.6045 354.508 37.3978 351.668 38.9844C348.829 40.4875 346.533 42.7422 344.779 45.7485C343.109 48.6712 342.274 52.3872 342.274 56.8966V60.4039C342.274 65.0803 343.109 69.0469 344.779 72.3036C346.533 75.4769 348.829 77.8986 351.668 79.5687C354.508 81.1553 357.597 81.9486 360.938 81.9486C364.946 81.9486 368.244 81.0718 370.833 79.3182C373.422 77.5645 375.342 75.1846 376.595 72.1784H389.121C388.035 76.0197 386.198 79.4852 383.61 82.575C381.021 85.5812 377.806 87.9611 373.965 89.7148C370.207 91.4684 365.864 92.3452 360.938 92.3452Z" fill="#1E90FF"/>
<path d="M0 90.8421L32.1919 3.15999H45.8452L78.0371 90.8421H64.6343L38.9559 18.1912L13.1523 90.8421H0ZM14.5302 69.1721L18.0375 59.1513H59.2481L62.7554 69.1721H14.5302Z" fill="#1E90FF"/>
<path d="M106.843 92.3452C101.916 92.3452 97.6155 91.3432 93.9412 89.339C90.3504 87.3348 87.553 84.3286 85.5488 80.3203C83.6281 76.3119 82.6678 71.2598 82.6678 65.1638V27.711H95.1938V63.7859C95.1938 69.7149 96.4882 74.1825 99.0769 77.1888C101.666 80.195 105.382 81.6981 110.225 81.6981C113.482 81.6981 116.405 80.9048 118.993 79.3182C121.665 77.7316 123.753 75.4351 125.256 72.4289C126.759 69.4226 127.511 65.7483 127.511 61.406V27.711H140.037V90.8421H128.889L128.012 80.0697C126.091 83.9111 123.294 86.9173 119.62 89.0885C115.945 91.2597 111.686 92.3452 106.843 92.3452Z" fill="#1E90FF"/>
<path d="M152.176 90.8421V27.711H163.45L164.577 39.6107C165.997 36.7715 167.834 34.3915 170.089 32.4709C172.343 30.4667 174.974 28.9218 177.98 27.8362C181.07 26.7507 184.577 26.2079 188.502 26.2079V39.4854H183.993C181.404 39.4854 178.94 39.8195 176.602 40.4875C174.264 41.0721 172.176 42.1159 170.339 43.619C168.586 45.1222 167.208 47.1681 166.206 49.7568C165.204 52.3455 164.702 55.5605 164.702 59.4018V90.8421H152.176Z" fill="#1E90FF"/>
<path d="M299.527 53.2272C297.521 46.3853 293.095 40.5069 287.073 36.6894C281.052 32.8718 273.847 31.3761 266.803 32.4813C259.759 33.5865 253.359 37.2172 248.796 42.6955C244.233 48.1739 241.819 55.1256 242.006 62.2529C242.193 69.3802 244.967 76.196 249.81 81.428C254.654 86.66 261.236 89.9507 268.327 90.6857C275.419 91.4207 282.536 89.5499 288.35 85.4224C294.163 81.2949 298.276 75.1929 299.92 68.2553L290.553 66.035C289.448 70.6976 286.684 74.7987 282.776 77.5727C278.869 80.3467 274.086 81.6041 269.32 81.1101C264.554 80.6161 260.13 78.4045 256.875 74.8882C253.62 71.3718 251.755 66.791 251.63 62.0008C251.504 57.2107 253.126 52.5386 256.193 48.8566C259.26 45.1747 263.561 42.7346 268.295 41.9918C273.029 41.249 277.872 42.2543 281.919 44.82C285.966 47.3857 288.941 51.3365 290.288 55.9348L299.527 53.2272Z" fill="#1E90FF"/>
<path d="M242.172 61.4843C242.172 77.6982 229.028 90.8421 212.815 90.8421C196.601 90.8421 183.457 77.6982 183.457 61.4843C183.457 45.2704 196.601 32.1264 212.815 32.1264C229.028 32.1264 242.172 45.2704 242.172 61.4843ZM193.084 61.4843C193.084 72.3814 201.917 81.2152 212.815 81.2152C223.712 81.2152 232.546 72.3814 232.546 61.4843C232.546 50.5872 223.712 41.7533 212.815 41.7533C201.917 41.7533 193.084 50.5872 193.084 61.4843Z" fill="#1E90FF"/>
<path d="M278.777 66.7563C278.777 70.262 275.935 73.104 272.43 73.104C268.924 73.104 266.082 70.262 266.082 66.7563C266.082 63.2506 268.924 60.4087 272.43 60.4087C275.935 60.4087 278.777 63.2506 278.777 66.7563Z" fill="black"/>
<path d="M277.19 68.3432C277.19 70.0961 275.769 71.517 274.016 71.517C272.264 71.517 270.843 70.0961 270.843 68.3432C270.843 66.5904 272.264 65.1694 274.016 65.1694C275.769 65.1694 277.19 66.5904 277.19 68.3432Z" fill="white"/>
<path d="M223.129 65.4515C223.129 68.9573 220.288 71.7992 216.782 71.7992C213.276 71.7992 210.434 68.9573 210.434 65.4515C210.434 61.9458 213.276 59.1039 216.782 59.1039C220.288 59.1039 223.129 61.9458 223.129 65.4515Z" fill="black"/>
<path d="M221.543 67.0384C221.543 68.7913 220.122 70.2123 218.369 70.2123C216.616 70.2123 215.195 68.7913 215.195 67.0384C215.195 65.2856 216.616 63.8646 218.369 63.8646C220.122 63.8646 221.543 65.2856 221.543 67.0384Z" fill="white"/>
<path d="M233.603 62.1367H242.737V90.8421H233.603V62.1367Z" fill="#1E90FF"/>
</svg>
