<svg width="172" height="89" viewBox="0 0 172 89" fill="none" xmlns="http://www.w3.org/2000/svg">
<path d="M163.347 42.174C163.347 65.0276 144.821 83.5541 121.967 83.5541C99.1134 83.5541 80.5869 65.0276 80.5869 42.174C80.5869 19.3204 99.1134 0.793945 121.967 0.793945C144.821 0.793945 163.347 19.3204 163.347 42.174ZM89.1694 42.174C89.1694 60.2876 103.853 74.9716 121.967 74.9716C140.081 74.9716 154.765 60.2876 154.765 42.174C154.765 24.0604 140.081 9.37647 121.967 9.37647C103.853 9.37647 89.1694 24.0604 89.1694 42.174Z" fill="#242424"/>
<path d="M149.706 74.9551L157.508 67.1524L167.528 77.1725C169.683 79.3272 169.683 82.8205 167.528 84.9752C165.374 87.1299 161.88 87.1299 159.726 84.9752L149.706 74.9551Z" fill="#242424"/>
<path fill-rule="evenodd" clip-rule="evenodd" d="M123.292 27.0079C122.173 26.0755 120.548 26.0755 119.429 27.0079L115.72 30.0988H110.153C108.487 30.0988 107.136 31.4497 107.136 33.1161V38.6825L104.045 42.3916C103.113 43.5105 103.113 45.1358 104.045 46.2548L107.136 49.9639L107.136 55.5303C107.136 57.1968 108.487 58.5476 110.153 58.5476H115.72L119.429 61.6386C120.548 62.571 122.173 62.571 123.292 61.6386L127.001 58.5476H132.567C134.234 58.5476 135.585 57.1968 135.585 55.5303V49.9639L138.676 46.2548C139.608 45.1358 139.608 43.5105 138.676 42.3916L135.585 38.6825V33.1161C135.585 31.4497 134.234 30.0988 132.567 30.0988H127.001L123.292 27.0079ZM127.329 41.542C128.174 41.1021 128.502 40.0608 128.062 39.2163C127.622 38.3717 126.581 38.0437 125.736 38.4836C123.275 39.7659 121.266 42.2206 119.938 44.1563C119.824 44.3239 119.713 44.4894 119.606 44.6519C119.364 45.0184 119.144 45.3702 118.946 45.6976C118.798 45.5724 118.654 45.4569 118.518 45.3512C118.474 45.3176 118.431 45.2848 118.389 45.2531C118.018 44.9736 117.684 44.7532 117.44 44.6012C117.318 44.5248 117.216 44.4648 117.143 44.4222C117.106 44.401 117.077 44.3839 117.054 44.3715L117.027 44.3562L117.017 44.351L117.014 44.3491L117.011 44.3475C116.174 43.8931 115.127 44.2029 114.673 45.0396C114.218 45.8762 114.529 46.9231 115.365 47.3778L115.369 47.3797L115.415 47.4061C115.458 47.4314 115.527 47.4721 115.615 47.5267C115.791 47.6369 116.039 47.8005 116.315 48.0078C116.89 48.4409 117.476 48.9845 117.831 49.5506C118.165 50.0825 118.762 50.3906 119.389 50.3551C120.016 50.3196 120.574 49.9456 120.846 49.3797L120.85 49.3707L120.872 49.3264C120.892 49.2854 120.924 49.2221 120.967 49.1392C121.052 48.9732 121.18 48.729 121.348 48.4273C121.684 47.8223 122.173 46.9947 122.782 46.1064C124.041 44.2705 125.653 42.4149 127.329 41.542Z" fill="#16974D"/>
<rect x="21.2748" y="21.4858" width="41.3801" height="41.3801" stroke="#1E90FF" stroke-width="2.75867" stroke-linecap="round" stroke-linejoin="round" stroke-dasharray="22.07 22.07"/>
<rect x="25.4131" y="42.1748" width="33.1041" height="2.75867" rx="1.37934" fill="#1E90FF"/>
<path d="M83.3451 42.174C83.3451 65.0276 64.8186 83.5541 41.965 83.5541C19.1115 83.5541 0.584961 65.0276 0.584961 42.174C0.584961 19.3204 19.1115 0.793945 41.965 0.793945C64.8186 0.793945 83.3451 19.3204 83.3451 42.174ZM9.16749 42.174C9.16749 60.2876 23.8515 74.9716 41.965 74.9716C60.0786 74.9716 74.7626 60.2876 74.7626 42.174C74.7626 24.0604 60.0786 9.37647 41.965 9.37647C23.8515 9.37647 9.16749 24.0604 9.16749 42.174Z" fill="#242424"/>
</svg>
