<svg width="547" height="115" viewBox="0 0 547 115" fill="none" xmlns="http://www.w3.org/2000/svg">
<path d="M163.347 55.174C163.347 78.0276 144.821 96.5541 121.967 96.5541C99.1134 96.5541 80.5869 78.0276 80.5869 55.174C80.5869 32.3204 99.1134 13.7939 121.967 13.7939C144.821 13.7939 163.347 32.3204 163.347 55.174ZM89.1694 55.174C89.1694 73.2876 103.853 87.9716 121.967 87.9716C140.081 87.9716 154.765 73.2876 154.765 55.174C154.765 37.0604 140.081 22.3765 121.967 22.3765C103.853 22.3765 89.1694 37.0604 89.1694 55.174Z" fill="#242424"/>
<path d="M149.706 87.9551L157.508 80.1524L167.528 90.1725C169.683 92.3272 169.683 95.8205 167.528 97.9752C165.374 100.13 161.88 100.13 159.726 97.9752L149.706 87.9551Z" fill="#242424"/>
<path fill-rule="evenodd" clip-rule="evenodd" d="M123.292 40.0079C122.173 39.0755 120.548 39.0755 119.429 40.0079L115.72 43.0988H110.153C108.487 43.0988 107.136 44.4497 107.136 46.1161V51.6825L104.045 55.3916C103.113 56.5105 103.113 58.1358 104.045 59.2548L107.136 62.9639L107.136 68.5303C107.136 70.1968 108.487 71.5476 110.153 71.5476H115.72L119.429 74.6386C120.548 75.571 122.173 75.571 123.292 74.6386L127.001 71.5476H132.567C134.234 71.5476 135.585 70.1968 135.585 68.5303V62.9639L138.676 59.2548C139.608 58.1358 139.608 56.5105 138.676 55.3916L135.585 51.6825V46.1161C135.585 44.4497 134.234 43.0988 132.567 43.0988H127.001L123.292 40.0079ZM127.329 54.542C128.174 54.1021 128.502 53.0608 128.062 52.2163C127.622 51.3717 126.581 51.0437 125.736 51.4836C123.275 52.7659 121.266 55.2206 119.938 57.1563C119.824 57.3239 119.713 57.4894 119.606 57.6519C119.364 58.0184 119.144 58.3702 118.946 58.6976C118.798 58.5724 118.654 58.4569 118.518 58.3512C118.474 58.3176 118.431 58.2848 118.389 58.2531C118.018 57.9736 117.684 57.7532 117.44 57.6012C117.318 57.5248 117.216 57.4648 117.143 57.4222C117.106 57.401 117.077 57.3839 117.054 57.3715L117.027 57.3562L117.017 57.351L117.014 57.3491L117.011 57.3475C116.174 56.8931 115.127 57.2029 114.673 58.0396C114.218 58.8762 114.529 59.9231 115.365 60.3778L115.369 60.3797L115.415 60.4061C115.458 60.4314 115.527 60.4721 115.615 60.5267C115.791 60.6369 116.039 60.8005 116.315 61.0078C116.89 61.4409 117.476 61.9845 117.831 62.5506C118.165 63.0825 118.762 63.3906 119.389 63.3551C120.016 63.3196 120.574 62.9456 120.846 62.3797L120.85 62.3707L120.872 62.3264C120.892 62.2854 120.924 62.2221 120.967 62.1392C121.052 61.9732 121.18 61.729 121.348 61.4273C121.684 60.8223 122.173 59.9947 122.782 59.1064C124.041 57.2705 125.653 55.4149 127.329 54.542Z" fill="#16974D"/>
<rect x="21.2748" y="34.4858" width="41.3801" height="41.3801" stroke="#1E90FF" stroke-width="2.75867" stroke-linecap="round" stroke-linejoin="round" stroke-dasharray="22.07 22.07"/>
<rect x="25.4131" y="55.1748" width="33.1041" height="2.75867" rx="1.37934" fill="#1E90FF"/>
<path d="M83.3451 55.174C83.3451 78.0276 64.8186 96.5541 41.965 96.5541C19.1115 96.5541 0.584961 78.0276 0.584961 55.174C0.584961 32.3204 19.1115 13.7939 41.965 13.7939C64.8186 13.7939 83.3451 32.3204 83.3451 55.174ZM9.16749 55.174C9.16749 73.2876 23.8515 87.9716 41.965 87.9716C60.0786 87.9716 74.7626 73.2876 74.7626 55.174C74.7626 37.0604 60.0786 22.3765 41.965 22.3765C23.8515 22.3765 9.16749 37.0604 9.16749 55.174Z" fill="#242424"/>
<path d="M218.58 88L195.628 26.2057H205.162L223.877 78.8191L242.768 26.2057H252.125L229.173 88H218.58ZM270.859 89.0593C266.622 89.0593 262.855 88.0883 259.559 86.1462C256.264 84.2041 253.674 81.4969 251.791 78.0246C249.966 74.5524 249.054 70.521 249.054 65.9306C249.054 61.2225 249.966 57.1323 251.791 53.66C253.674 50.1289 256.264 47.3923 259.559 45.4502C262.855 43.4493 266.68 42.4488 271.035 42.4488C275.39 42.4488 279.127 43.4198 282.247 45.362C285.366 47.3041 287.779 49.8935 289.485 53.1304C291.192 56.3084 292.045 59.8395 292.045 63.7237C292.045 64.3122 292.016 64.9596 291.957 65.6658C291.957 66.3132 291.928 67.0488 291.869 67.8727H255.499V61.605H283.218C283.041 57.8974 281.805 55.0136 279.51 52.9538C277.215 50.8352 274.361 49.7758 270.947 49.7758C268.534 49.7758 266.327 50.3349 264.326 51.4531C262.325 52.5124 260.707 54.1014 259.471 56.2201C258.294 58.2799 257.705 60.8988 257.705 64.0768V66.5486C257.705 69.8443 258.294 72.6397 259.471 74.9349C260.707 77.1713 262.325 78.878 264.326 80.055C266.327 81.1732 268.505 81.7323 270.859 81.7323C273.684 81.7323 276.008 81.1144 277.833 79.8785C279.657 78.6426 281.011 76.9653 281.894 74.8466H290.721C289.956 77.5538 288.661 79.9962 286.837 82.1737C285.013 84.2923 282.747 85.9696 280.04 87.2055C277.391 88.4414 274.331 89.0593 270.859 89.0593ZM298.322 88V43.5081H306.267L307.062 51.8945C308.062 49.8935 309.357 48.2163 310.946 46.8627C312.535 45.4502 314.389 44.3615 316.507 43.5964C318.685 42.8313 321.157 42.4488 323.923 42.4488V51.8062H320.745C318.92 51.8062 317.184 52.0416 315.536 52.5124C313.888 52.9244 312.417 53.66 311.122 54.7194C309.886 55.7787 308.915 57.2206 308.209 59.045C307.503 60.8694 307.15 63.1352 307.15 65.8423V88H298.322ZM333.619 107.421L344.477 83.0565H341.917L324.349 43.5081H333.883L347.831 75.8177L361.867 43.5081H371.137L342.888 107.421H333.619ZM377.783 88V37.5053C377.783 34.445 378.283 31.9438 379.284 30.0017C380.343 28.0596 381.873 26.6471 383.874 25.7643C385.875 24.8816 388.288 24.4402 391.113 24.4402H396.321V31.9438H392.525C390.407 31.9438 388.876 32.3852 387.935 33.2679C387.052 34.0919 386.611 35.5631 386.611 37.6818V88H377.783ZM371.25 51.0117V43.5081H397.292V51.0117H371.25ZM415.749 89.0593C412.1 89.0593 409.069 88.4414 406.657 87.2055C404.244 85.9696 402.449 84.3218 401.272 82.262C400.095 80.1433 399.506 77.8775 399.506 75.4646C399.506 72.522 400.271 70.0208 401.801 67.961C403.331 65.8423 405.509 64.2239 408.334 63.1057C411.159 61.9876 414.543 61.4285 418.486 61.4285H430.05C430.05 58.839 429.668 56.6909 428.902 54.9842C428.137 53.2775 426.99 52.0122 425.46 51.1883C423.988 50.3055 422.105 49.8641 419.81 49.8641C417.162 49.8641 414.896 50.5115 413.013 51.8062C411.129 53.0421 409.952 54.8959 409.481 57.3677H400.654C401.007 54.2486 402.066 51.6002 403.832 49.4227C405.656 47.1864 407.981 45.4797 410.806 44.3026C413.63 43.0667 416.632 42.4488 419.81 42.4488C423.988 42.4488 427.49 43.1844 430.315 44.6557C433.14 46.127 435.258 48.2163 436.671 50.9234C438.142 53.5718 438.878 56.7498 438.878 60.4574V88H431.198L430.491 80.4964C429.844 81.6734 429.079 82.7916 428.196 83.851C427.313 84.9103 426.254 85.8225 425.018 86.5876C423.841 87.3526 422.458 87.9411 420.869 88.3531C419.339 88.8239 417.632 89.0593 415.749 89.0593ZM417.426 81.9089C419.31 81.9089 421.016 81.5263 422.547 80.7612C424.077 79.9962 425.371 78.9663 426.431 77.6715C427.549 76.3179 428.373 74.8172 428.902 73.1694C429.491 71.4627 429.815 69.7266 429.874 67.961V67.6962H419.369C416.838 67.6962 414.778 68.0199 413.189 68.6672C411.659 69.2557 410.541 70.0797 409.835 71.139C409.128 72.1983 408.775 73.4342 408.775 74.8466C408.775 76.3179 409.099 77.5833 409.746 78.6426C410.452 79.6431 411.453 80.4376 412.748 81.0261C414.042 81.6146 415.602 81.9089 417.426 81.9089ZM447.232 88V43.5081H456.06V88H447.232ZM451.735 35.1218C450.028 35.1218 448.616 34.5921 447.497 33.5328C446.438 32.4734 445.908 31.1198 445.908 29.472C445.908 27.883 446.438 26.5883 447.497 25.5878C448.616 24.5285 450.028 23.9988 451.735 23.9988C453.382 23.9988 454.766 24.5285 455.884 25.5878C457.002 26.5883 457.561 27.883 457.561 29.472C457.561 31.1198 457.002 32.4734 455.884 33.5328C454.766 34.5921 453.382 35.1218 451.735 35.1218ZM468.684 88.4414C466.977 88.4414 465.565 87.9117 464.447 86.8524C463.387 85.7342 462.858 84.41 462.858 82.8799C462.858 81.2909 463.387 79.9667 464.447 78.9074C465.565 77.7892 466.977 77.2301 468.684 77.2301C470.391 77.2301 471.774 77.7892 472.833 78.9074C473.892 79.9667 474.422 81.2909 474.422 82.8799C474.422 84.41 473.892 85.7342 472.833 86.8524C471.774 87.9117 470.391 88.4414 468.684 88.4414ZM481.206 88V43.5081H490.033V88H481.206ZM485.708 35.1218C484.001 35.1218 482.589 34.5921 481.47 33.5328C480.411 32.4734 479.881 31.1198 479.881 29.472C479.881 27.883 480.411 26.5883 481.47 25.5878C482.589 24.5285 484.001 23.9988 485.708 23.9988C487.356 23.9988 488.739 24.5285 489.857 25.5878C490.975 26.5883 491.534 27.883 491.534 29.472C491.534 31.1198 490.975 32.4734 489.857 33.5328C488.739 34.5921 487.356 35.1218 485.708 35.1218ZM519.43 89.0593C515.251 89.0593 511.485 88.0883 508.13 86.1462C504.835 84.2041 502.216 81.4969 500.274 78.0246C498.39 74.4935 497.449 70.4328 497.449 65.8423C497.449 61.1342 498.42 57.044 500.362 53.5718C502.304 50.0407 504.952 47.3041 508.307 45.362C511.661 43.4198 515.428 42.4488 519.606 42.4488C523.844 42.4488 527.61 43.4198 530.906 45.362C534.202 47.3041 536.791 50.0112 538.674 53.4835C540.616 56.9557 541.587 61.0459 541.587 65.7541C541.587 70.4622 540.616 74.5524 538.674 78.0246C536.791 81.4969 534.172 84.2041 530.818 86.1462C527.463 88.0883 523.667 89.0593 519.43 89.0593ZM519.43 81.4675C521.843 81.4675 524.02 80.8789 525.962 79.7019C527.963 78.5249 529.552 76.7888 530.729 74.4935C531.965 72.1395 532.583 69.2263 532.583 65.7541C532.583 62.2818 531.995 59.3981 530.818 57.1029C529.641 54.7488 528.052 52.9832 526.051 51.8062C524.108 50.6292 521.96 50.0407 519.606 50.0407C517.252 50.0407 515.075 50.6292 513.074 51.8062C511.073 52.9832 509.454 54.7488 508.219 57.1029C507.041 59.3981 506.453 62.2818 506.453 65.7541C506.453 69.2263 507.041 72.1395 508.219 74.4935C509.454 76.7888 511.043 78.5249 512.985 79.7019C514.986 80.8789 517.135 81.4675 519.43 81.4675Z" fill="#1E90FF"/>
</svg>
