<svg width="65" height="64" viewBox="0 0 65 64" fill="none" xmlns="http://www.w3.org/2000/svg">
<path d="M50.5178 37.7661C50.3755 37.7662 50.2348 37.7359 50.1051 37.6773C49.9754 37.6186 49.8597 37.533 49.7658 37.4261C48.7333 36.2503 47.462 35.3081 46.0366 34.6625C44.6112 34.0169 43.0646 33.6827 41.4998 33.6821C39.1598 33.6821 36.8338 34.4501 34.9538 35.8441C34.8483 35.9222 34.7285 35.9788 34.6012 36.0107C34.4739 36.0425 34.3415 36.0489 34.2117 36.0296C34.0819 36.0103 33.9572 35.9656 33.8446 35.8981C33.7321 35.8306 33.6339 35.7415 33.5558 35.6361C33.4777 35.5306 33.4211 35.4108 33.3892 35.2835C33.3574 35.1562 33.3509 35.0238 33.3703 34.894C33.3896 34.7642 33.4343 34.6394 33.5018 34.5269C33.5693 34.4144 33.6583 34.3162 33.7638 34.2381C36.0059 32.5855 38.7165 31.6909 41.5018 31.6841C45.2418 31.6841 48.8018 33.2961 51.2718 36.1061C51.398 36.251 51.4798 36.4291 51.5076 36.6193C51.5354 36.8094 51.5079 37.0035 51.4284 37.1785C51.349 37.3534 51.2209 37.5018 51.0594 37.606C50.898 37.7102 50.7099 37.7658 50.5178 37.7661Z" fill="#F04C4D"/>
<path d="M27.2939 28.922C27.1245 28.922 26.9579 28.879 26.8097 28.7969C26.6615 28.7149 26.5365 28.5966 26.4466 28.453C26.3566 28.3095 26.3046 28.1454 26.2954 27.9763C26.2862 27.8071 26.3201 27.6384 26.3939 27.486C27.12 25.9892 27.4981 24.3476 27.4999 22.684C27.4999 20.756 26.9899 18.852 26.0279 17.184C25.9612 17.0702 25.9177 16.9444 25.8998 16.8137C25.882 16.683 25.8901 16.5501 25.9238 16.4226C25.9576 16.2951 26.0161 16.1755 26.0963 16.0708C26.1764 15.966 26.2764 15.8781 26.3906 15.8122C26.5048 15.7463 26.631 15.7036 26.7617 15.6866C26.8925 15.6696 27.0254 15.6786 27.1526 15.7132C27.2799 15.7477 27.3991 15.8071 27.5033 15.8879C27.6075 15.9687 27.6948 16.0693 27.7599 16.184C28.8207 18.0238 29.4152 20.0952 29.4916 22.2176C29.5679 24.3399 29.1238 26.4487 28.1979 28.36C28.1149 28.5288 27.9862 28.671 27.8264 28.7703C27.6666 28.8697 27.4821 28.9222 27.2939 28.922Z" fill="#499ED7"/>
<path d="M10.1378 51.6978L22.9478 27.2438C23.0934 26.9659 23.3023 26.7261 23.5577 26.5439C23.813 26.3617 24.1077 26.2421 24.4178 26.1947C24.728 26.1474 25.0449 26.1738 25.343 26.2716C25.6411 26.3694 25.912 26.5359 26.1338 26.7578L36.4278 37.0518C36.6496 37.2736 36.8162 37.5445 36.914 37.8426C37.0118 38.1407 37.0382 38.4576 36.9909 38.7678C36.9435 39.0779 36.8239 39.3726 36.6417 39.6279C36.4595 39.8833 36.2197 40.0922 35.9418 40.2378L11.4878 53.0478C11.299 53.1468 11.0835 53.1829 10.8728 53.1507C10.662 53.1186 10.4671 53.02 10.3163 52.8693C10.1656 52.7185 10.067 52.5236 10.0349 52.3128C10.0027 52.1021 10.0388 51.8866 10.1378 51.6978Z" fill="#FFCC5C"/>
<path d="M36.4258 37.0518L26.1318 26.7578C25.91 26.5359 25.6391 26.3694 25.341 26.2716C25.0429 26.1738 24.726 26.1474 24.4158 26.1947C24.1057 26.2421 23.811 26.3617 23.5557 26.5439C23.3003 26.7261 23.0914 26.9659 22.9458 27.2438L22.8338 27.4598L26.5798 31.2058C27.2454 31.8713 27.7451 32.684 28.0385 33.5782C28.332 34.4725 28.4109 35.4233 28.269 36.3537C28.1271 37.2841 27.7682 38.1681 27.2215 38.9342C26.6748 39.7003 25.9555 40.3271 25.1218 40.7638L12.3658 47.4458L10.1378 51.6978C10.0388 51.8866 10.0027 52.1021 10.0349 52.3128C10.067 52.5236 10.1656 52.7185 10.3163 52.8693C10.4671 53.02 10.662 53.1186 10.8728 53.1507C11.0835 53.1829 11.299 53.1468 11.4878 53.0478L35.9418 40.2378C36.2195 40.092 36.4591 39.883 36.6412 39.6275C36.8232 39.3721 36.9426 39.0774 36.9897 38.7672C37.0368 38.4571 37.0103 38.1403 36.9124 37.8423C36.8144 37.5443 36.6477 37.2735 36.4258 37.0518Z" fill="#F7B546"/>
<path d="M16.3607 50.4938L18.8667 49.1818L12.4967 47.1918L11.5547 48.9918L16.3607 50.4938ZM14.0607 44.2058L23.0207 47.0058L25.5267 45.6938L15.0047 42.4058L14.0607 44.2058ZM16.5667 39.4198L29.6787 43.5178L32.1847 42.2058L17.5107 37.6198L16.5667 39.4198ZM19.0747 34.6358L36.2207 39.9938C36.4994 39.7769 36.7138 39.4883 36.841 39.1589C36.9682 38.8295 37.0033 38.4716 36.9427 38.1238L20.0187 32.8358L19.0747 34.6358ZM21.5807 29.8518L32.7007 33.3258L29.6527 30.2798L22.5227 28.0518L21.5807 29.8518Z" fill="#F47423"/>
<path d="M36.9407 38.1239L28.3047 35.4259C28.3067 36.1059 28.2027 36.7779 27.9807 37.4199L36.2207 39.9939C36.5007 39.7699 36.7007 39.4899 36.8267 39.1839L36.8547 39.1139C36.9673 38.7966 36.9969 38.4558 36.9407 38.1239ZM25.5267 45.6939L19.3767 43.7719L16.8707 45.0839L23.0207 47.0059L23.6047 46.6999L25.5267 45.6939ZM26.5787 31.2059C26.6647 31.2919 26.7167 31.3919 26.7947 31.4819L32.6987 33.3279L29.6507 30.2799L23.8327 28.4619L26.5787 31.2059ZM11.5547 48.9919L16.3607 50.4939L18.8667 49.1819L12.7167 47.2599L12.3647 47.4459L11.5547 48.9919ZM25.1207 40.7639L23.5307 41.5979L29.6807 43.5199L32.1867 42.2079L25.8867 40.2399C25.6367 40.4199 25.4027 40.6159 25.1207 40.7639Z" fill="#ED5D25"/>
<path d="M16.5021 25.6841C15.9239 25.682 15.3585 25.513 14.874 25.1975C14.3894 24.8821 14.0062 24.4334 13.7703 23.9055C13.5345 23.3776 13.456 22.7929 13.5443 22.2214C13.6325 21.65 13.8839 21.1162 14.2681 20.6841C13.7736 20.1353 13.5 19.4228 13.5 18.6841C13.5 17.9454 13.7736 17.2329 14.2681 16.6841C13.8839 16.252 13.6325 15.7182 13.5443 15.1467C13.456 14.5753 13.5345 13.9905 13.7703 13.4626C14.0062 12.9347 14.3894 12.4861 14.874 12.1706C15.3585 11.8551 15.9239 11.6862 16.5021 11.6841C16.7673 11.6841 17.0216 11.7894 17.2092 11.977C17.3967 12.1645 17.5021 12.4189 17.5021 12.6841C17.5021 12.9493 17.3967 13.2037 17.2092 13.3912C17.0216 13.5787 16.7673 13.6841 16.5021 13.6841C16.2368 13.6841 15.9825 13.7894 15.795 13.977C15.6074 14.1645 15.5021 14.4189 15.5021 14.6841C15.5021 14.9493 15.6074 15.2037 15.795 15.3912C15.9825 15.5787 16.2368 15.6841 16.5021 15.6841C16.7673 15.6841 17.0216 15.7894 17.2092 15.977C17.3967 16.1645 17.5021 16.4189 17.5021 16.6841C17.5021 16.9493 17.3967 17.2037 17.2092 17.3912C17.0216 17.5787 16.7673 17.6841 16.5021 17.6841C16.2368 17.6841 15.9825 17.7894 15.795 17.977C15.6074 18.1645 15.5021 18.4189 15.5021 18.6841C15.5021 18.9493 15.6074 19.2037 15.795 19.3912C15.9825 19.5787 16.2368 19.6841 16.5021 19.6841C16.7673 19.6841 17.0216 19.7894 17.2092 19.977C17.3967 20.1645 17.5021 20.4189 17.5021 20.6841C17.5021 20.9493 17.3967 21.2037 17.2092 21.3912C17.0216 21.5787 16.7673 21.6841 16.5021 21.6841C16.2368 21.6841 15.9825 21.7894 15.795 21.977C15.6074 22.1645 15.5021 22.4189 15.5021 22.6841C15.5021 22.9493 15.6074 23.2037 15.795 23.3912C15.9825 23.5787 16.2368 23.6841 16.5021 23.6841C16.7673 23.6841 17.0216 23.7894 17.2092 23.977C17.3967 24.1645 17.5021 24.4189 17.5021 24.6841C17.5021 24.9493 17.3967 25.2037 17.2092 25.3912C17.0216 25.5787 16.7673 25.6841 16.5021 25.6841Z" fill="#92CA62"/>
<path d="M16.5688 17.6701C16.7618 17.6579 16.9471 17.5893 17.1014 17.4726C17.2558 17.356 17.3724 17.1965 17.4368 17.0141C17.2439 17.027 17.059 17.0959 16.9048 17.2124C16.7506 17.329 16.6338 17.488 16.5688 17.6701ZM17.4368 13.0141C17.2439 13.027 17.059 13.0959 16.9048 13.2124C16.7506 13.329 16.6338 13.488 16.5688 13.6701C16.7618 13.6579 16.9471 13.5893 17.1014 13.4726C17.2558 13.356 17.3724 13.1965 17.4368 13.0141ZM14.5028 22.0001C14.5028 21.2321 14.7928 20.5321 15.2688 20.0001C14.7743 19.4513 14.5007 18.7387 14.5007 18.0001C14.5007 17.2614 14.7743 16.5489 15.2688 16.0001C14.7614 15.4355 14.488 14.6989 14.5039 13.9401C14.5199 13.1812 14.8241 12.4568 15.3548 11.9141C14.9128 12.0981 14.5212 12.3852 14.2127 12.7514C13.9043 13.1175 13.6879 13.5522 13.5816 14.019C13.4753 14.4858 13.4822 14.9713 13.6018 15.4349C13.7213 15.8985 13.95 16.3268 14.2688 16.6841C13.7739 17.2327 13.5 17.9452 13.5 18.6841C13.5 19.4229 13.7739 20.1355 14.2688 20.6841C13.8846 21.1162 13.6332 21.65 13.545 22.2214C13.4567 22.7928 13.5352 23.3776 13.771 23.9055C14.0069 24.4334 14.3901 24.882 14.8747 25.1975C15.3592 25.513 15.9245 25.682 16.5028 25.6841C16.7119 25.6829 16.9154 25.6155 17.0839 25.4916C17.2524 25.3676 17.3774 25.1934 17.4408 24.9941C16.6569 24.9779 15.9106 24.6555 15.3615 24.0959C14.8124 23.5363 14.5042 22.784 14.5028 22.0001Z" fill="#71BC58"/>
<path d="M16.5625 21.6702C16.7552 21.6576 16.94 21.5888 17.094 21.4722C17.248 21.3556 17.3643 21.1963 17.4285 21.0142C17.2359 21.0272 17.0513 21.0962 16.8975 21.2128C16.7436 21.3293 16.6272 21.4883 16.5625 21.6702Z" fill="#71BC58"/>
<path d="M43.9624 27.8021C43.1944 27.8021 42.4264 27.5101 41.8404 26.9261C41.6527 26.7386 41.5471 26.4842 41.5469 26.2188C41.5467 25.9535 41.6519 25.6989 41.8394 25.5111C42.0269 25.3234 42.2814 25.2178 42.5467 25.2176C42.8121 25.2174 43.0667 25.3226 43.2544 25.5101C43.3474 25.603 43.4578 25.6766 43.5792 25.7268C43.7006 25.777 43.8307 25.8028 43.9621 25.8027C44.0935 25.8026 44.2236 25.7766 44.345 25.7263C44.4663 25.6759 44.5766 25.6021 44.6694 25.5091C44.7623 25.4162 44.8359 25.3058 44.8861 25.1844C44.9363 25.063 44.9621 24.9328 44.962 24.8014C44.9619 24.67 44.9359 24.54 44.8856 24.4186C44.8352 24.2972 44.7614 24.187 44.6684 24.0941C44.5748 24.0015 44.5005 23.8913 44.4498 23.7697C44.3991 23.6482 44.373 23.5178 44.373 23.3861C44.373 23.2545 44.3991 23.1241 44.4498 23.0026C44.5005 22.881 44.5748 22.7708 44.6684 22.6781C44.856 22.4907 45.1103 22.3854 45.3754 22.3854C45.6406 22.3854 45.8949 22.4907 46.0824 22.6781C46.271 22.8603 46.5236 22.9611 46.7858 22.9588C47.048 22.9565 47.2988 22.8514 47.4842 22.666C47.6697 22.4806 47.7748 22.2297 47.7771 21.9675C47.7794 21.7053 47.6786 21.4527 47.4964 21.2641C47.4028 21.1715 47.3285 21.0613 47.2778 20.9397C47.2271 20.8182 47.201 20.6878 47.201 20.5561C47.201 20.4245 47.2271 20.2941 47.2778 20.1726C47.3285 20.051 47.4028 19.9408 47.4964 19.8481C47.684 19.6607 47.9383 19.5554 48.2034 19.5554C48.4686 19.5554 48.7229 19.6607 48.9104 19.8481C49.1014 20.029 49.3544 20.1299 49.6174 20.1299C49.8805 20.1299 50.1335 20.029 50.3244 19.8481C50.4177 19.7554 50.4915 19.6451 50.5417 19.5235C50.5918 19.402 50.6172 19.2716 50.6164 19.1401C50.617 19.009 50.5914 18.879 50.5413 18.7578C50.4912 18.6366 50.4174 18.5266 50.3244 18.4341C50.2315 18.3413 50.1577 18.231 50.1073 18.1097C50.0569 17.9883 50.031 17.8582 50.0309 17.7268C50.0308 17.5955 50.0566 17.4653 50.1068 17.3439C50.157 17.2225 50.2306 17.1121 50.3234 17.0191C50.4163 16.9262 50.5265 16.8524 50.6479 16.802C50.7692 16.7517 50.8993 16.7257 51.0307 16.7256C51.1621 16.7255 51.2922 16.7513 51.4137 16.8015C51.5351 16.8517 51.6455 16.9253 51.7384 17.0181C52.3044 17.5841 52.6164 18.3381 52.6164 19.1401C52.6171 19.9073 52.3236 20.6455 51.7964 21.2028C51.2692 21.7602 50.5484 22.0942 49.7824 22.1361C49.7435 22.8741 49.4328 23.5715 48.9103 24.094C48.3877 24.6165 47.6904 24.9272 46.9524 24.9661C46.9124 25.6781 46.6224 26.3801 46.0784 26.9221C45.5004 27.5101 44.7304 27.8021 43.9624 27.8021Z" fill="#AE89BE"/>
<path d="M44.9998 22.684C45.1632 22.8442 45.3771 22.9428 45.6051 22.9629C45.8331 22.983 46.061 22.9232 46.2498 22.794C46.1958 22.758 46.1338 22.734 46.0858 22.684C45.9224 22.5237 45.7085 22.4251 45.4805 22.405C45.2525 22.385 45.0247 22.4447 44.8358 22.574C44.8898 22.61 44.9518 22.636 44.9998 22.684ZM47.8278 19.856C47.9939 20.0116 48.2076 20.1068 48.4344 20.126C48.6612 20.1453 48.8879 20.0875 49.0778 19.962C49.0218 19.926 48.9618 19.904 48.9138 19.856C48.7504 19.6957 48.5365 19.5971 48.3085 19.577C48.0805 19.557 47.8527 19.6167 47.6638 19.746C47.7178 19.782 47.7798 19.808 47.8278 19.856ZM42.1718 25.512C42.3352 25.6722 42.5491 25.7708 42.7771 25.7909C43.0051 25.811 43.233 25.7512 43.4218 25.622C43.3678 25.586 43.3058 25.562 43.2578 25.512C43.094 25.3523 42.88 25.2544 42.6521 25.2347C42.4242 25.215 42.1966 25.2748 42.0078 25.404C42.0618 25.44 42.1238 25.464 42.1718 25.512Z" fill="#9676B5"/>
<path d="M51.7459 17.0261C51.5821 16.8665 51.368 16.7685 51.1402 16.7488C50.9123 16.7291 50.6846 16.7889 50.4959 16.9181C50.5499 16.9541 50.6119 16.9781 50.6599 17.0261C51.2259 17.5921 51.5379 18.3461 51.5379 19.1481C51.5385 19.9152 51.245 20.6535 50.7178 21.2108C50.1907 21.7681 49.4699 22.1021 48.7039 22.1441C48.6649 22.882 48.3542 23.5794 47.8317 24.1019C47.3092 24.6244 46.6118 24.9351 45.8739 24.9741C45.8339 25.6861 45.5439 26.3881 44.9999 26.9301C44.5559 27.3741 43.9979 27.5941 43.4219 27.7001C43.6039 27.7341 43.7799 27.8061 43.9639 27.8061C44.731 27.8077 45.4695 27.5149 46.027 26.9879C46.5844 26.4609 46.9184 25.7401 46.9599 24.9741C47.6975 24.9342 48.3944 24.6233 48.9167 24.1009C49.4391 23.5786 49.75 22.8817 49.7899 22.1441C50.5561 22.1026 51.2771 21.7687 51.8044 21.2113C52.3317 20.6539 52.625 19.9154 52.6239 19.1481C52.6255 18.7538 52.5487 18.3632 52.398 17.9989C52.2472 17.6346 52.0256 17.3039 51.7459 17.0261Z" fill="#9676B5"/>
<path d="M32.8463 51.6038C32.6728 51.6038 32.5023 51.5586 32.3515 51.4727C32.2007 51.3868 32.0748 51.2631 31.9863 51.1138C31.689 50.6159 31.5425 50.0424 31.5647 49.4629C31.5869 48.8834 31.7768 48.3228 32.1114 47.8492C32.4459 47.3755 32.9108 47.0091 33.4495 46.7944C33.9882 46.5797 34.5777 46.526 35.1463 46.6398C35.3603 45.9598 35.8163 45.3518 36.4763 44.9618C37.1343 44.5698 37.8783 44.4618 38.5863 44.5998C38.8063 43.8938 39.2743 43.3018 39.9163 42.9218C40.2547 42.7192 40.6301 42.586 41.0205 42.5301C41.411 42.4741 41.8086 42.4964 42.1903 42.5958C42.9663 42.7938 43.6203 43.2838 44.0283 43.9718C44.0953 44.085 44.1393 44.2103 44.1579 44.3405C44.1765 44.4707 44.1692 44.6033 44.1365 44.7307C44.1038 44.8581 44.0463 44.9778 43.9674 45.083C43.8884 45.1882 43.7895 45.2768 43.6763 45.3438C43.5631 45.4108 43.4379 45.4548 43.3076 45.4734C43.1774 45.4919 43.0448 45.4847 42.9174 45.452C42.79 45.4193 42.6703 45.3618 42.5651 45.2829C42.4599 45.2039 42.3713 45.105 42.3043 44.9918C42.2045 44.8203 42.0556 44.6826 41.8769 44.5962C41.6982 44.5099 41.4977 44.4789 41.3013 44.5073C41.1049 44.5357 40.9214 44.6221 40.7744 44.7555C40.6274 44.8888 40.5236 45.0631 40.4763 45.2558C40.4437 45.3828 40.4366 45.5151 40.4555 45.6449C40.4744 45.7746 40.5188 45.8994 40.5863 46.0118C40.696 46.2382 40.7166 46.4974 40.6443 46.7383C40.5719 46.9791 40.4118 47.1841 40.1956 47.3125C39.9794 47.441 39.7228 47.4836 39.4767 47.432C39.2305 47.3804 39.0127 47.2383 38.8663 47.0338C38.7303 46.806 38.5096 46.6414 38.2525 46.5758C37.9955 46.5102 37.7229 46.549 37.4943 46.6838C37.2666 46.8199 37.1019 47.0405 37.0363 47.2976C36.9707 47.5547 37.0096 47.8273 37.1443 48.0558C37.2796 48.2844 37.3185 48.5574 37.2525 48.8147C37.1865 49.072 37.021 49.2926 36.7923 49.4278C36.5637 49.5631 36.2907 49.602 36.0334 49.536C35.7761 49.47 35.5556 49.3044 35.4203 49.0758C35.3542 48.9624 35.266 48.8634 35.1608 48.7847C35.0557 48.706 34.9358 48.6493 34.8083 48.6178C34.617 48.5695 34.4156 48.5789 34.2295 48.6448C34.0434 48.7107 33.881 48.8302 33.7628 48.9882C33.6445 49.1463 33.5757 49.3358 33.5649 49.5329C33.5542 49.73 33.602 49.9259 33.7023 50.0958C33.7923 50.2472 33.8407 50.4197 33.8424 50.5958C33.8442 50.7719 33.7994 50.9453 33.7124 51.0985C33.6255 51.2516 33.4996 51.3791 33.3475 51.4678C33.1953 51.5566 33.0225 51.6035 32.8463 51.6038Z" fill="#499ED7"/>
<path d="M33.1228 51.1159C32.921 50.7772 32.788 50.4021 32.7315 50.012C32.675 49.6218 32.696 49.2244 32.7933 48.8424C32.8907 48.4604 33.0625 48.1013 33.2989 47.7859C33.5352 47.4704 33.8315 47.2046 34.1708 47.0039C34.4748 46.8219 34.8068 46.7059 35.1468 46.6419C34.4242 46.4955 33.673 46.6246 33.0408 47.0039C32.7013 47.204 32.4049 47.4696 32.1687 47.785C31.9325 48.1005 31.7612 48.4598 31.6648 48.8419C31.5663 49.2238 31.5445 49.6214 31.6008 50.0118C31.6571 50.4021 31.7904 50.7774 31.9928 51.1159C32.1288 51.3431 32.3491 51.5074 32.6057 51.573C32.8623 51.6385 33.1344 51.6 33.3628 51.4659C33.3888 51.4519 33.4008 51.4259 33.4248 51.4099C33.305 51.3337 33.2022 51.2336 33.1228 51.1159ZM36.5608 49.0739C36.4947 48.9604 36.4064 48.8614 36.3013 48.7828C36.1962 48.7041 36.0763 48.6473 35.9488 48.6159C35.8215 48.5828 35.6889 48.5756 35.5587 48.5944C35.4285 48.6133 35.3035 48.658 35.1908 48.7259C35.1708 48.7379 35.1588 48.7579 35.1408 48.7699C35.2548 48.8499 35.3568 48.9499 35.4288 49.0739C35.5645 49.3021 35.7852 49.4671 36.0424 49.5327C36.2996 49.5983 36.5724 49.5592 36.8008 49.4239C36.8208 49.4119 36.8268 49.3899 36.8468 49.3779C36.731 49.2979 36.6335 49.1943 36.5608 49.0739ZM36.2848 46.6419C36.4988 45.9619 36.9548 45.3539 37.6148 44.9639C38.2728 44.5719 39.0168 44.4639 39.7248 44.6019C39.885 44.0871 40.1825 43.6257 40.5853 43.2673C40.988 42.909 41.4809 42.6671 42.0108 42.5679C41.2906 42.4238 40.5426 42.5521 39.9116 42.9278C39.2805 43.3036 38.8113 43.9001 38.5948 44.6019C37.8709 44.4557 37.1185 44.5847 36.4848 44.9639C35.8248 45.3559 35.3708 45.9599 35.1568 46.6399C35.5248 46.5699 35.9048 46.5639 36.2848 46.6419ZM40.0048 47.0339C39.8688 46.8061 39.6481 46.6414 39.391 46.5758C39.1339 46.5103 38.8613 46.5491 38.6328 46.6839C38.6128 46.6959 38.6008 46.7159 38.5828 46.7299C38.6968 46.8099 38.7968 46.9079 38.8728 47.0359C39.0084 47.2636 39.2289 47.4282 39.4858 47.4934C39.7427 47.5587 40.0149 47.5193 40.2428 47.3839C40.2628 47.3719 40.2688 47.3499 40.2868 47.3379C40.1727 47.2573 40.0766 47.1537 40.0048 47.0339ZM43.4428 44.9939C43.376 44.8807 43.2875 44.7819 43.1824 44.7031C43.0773 44.6243 42.9576 44.5671 42.8302 44.5347C42.7029 44.5024 42.5704 44.4956 42.4404 44.5146C42.3104 44.5337 42.1855 44.5783 42.0728 44.6459C42.0528 44.6579 42.0408 44.6779 42.0228 44.6899C42.1368 44.7699 42.2388 44.8699 42.3108 44.9939C42.4465 45.2221 42.6672 45.3871 42.9244 45.4527C43.1816 45.5183 43.4544 45.4792 43.6828 45.3439C43.7028 45.3319 43.7128 45.3119 43.7328 45.2999C43.6152 45.2199 43.5163 45.1156 43.4428 44.9939Z" fill="#2B8EC6"/>
<path d="M30.5 12.6841C31.6046 12.6841 32.5 11.7887 32.5 10.6841C32.5 9.57951 31.6046 8.68408 30.5 8.68408C29.3954 8.68408 28.5 9.57951 28.5 10.6841C28.5 11.7887 29.3954 12.6841 30.5 12.6841Z" fill="#AE89BE"/>
<path d="M46.5 12.6841C47.6046 12.6841 48.5 11.7887 48.5 10.6841C48.5 9.57951 47.6046 8.68408 46.5 8.68408C45.3954 8.68408 44.5 9.57951 44.5 10.6841C44.5 11.7887 45.3954 12.6841 46.5 12.6841Z" fill="#499ED7"/>
<path d="M54.5 32.6841C55.6046 32.6841 56.5 31.7887 56.5 30.6841C56.5 29.5795 55.6046 28.6841 54.5 28.6841C53.3954 28.6841 52.5 29.5795 52.5 30.6841C52.5 31.7887 53.3954 32.6841 54.5 32.6841Z" fill="#FFCC5C"/>
<path d="M8.5 40.6841C9.60457 40.6841 10.5 39.7887 10.5 38.6841C10.5 37.5795 9.60457 36.6841 8.5 36.6841C7.39543 36.6841 6.5 37.5795 6.5 38.6841C6.5 39.7887 7.39543 40.6841 8.5 40.6841Z" fill="#F04C4D"/>
<path d="M30.5 8.68408C30.2425 8.6858 29.9878 8.73742 29.75 8.83608C30.1179 8.98519 30.4329 9.24071 30.6547 9.56994C30.8766 9.89917 30.995 10.2871 30.995 10.6841C30.995 11.0811 30.8766 11.469 30.6547 11.7982C30.4329 12.1274 30.1179 12.383 29.75 12.5321C29.9878 12.6307 30.2425 12.6824 30.5 12.6841C31.0304 12.6841 31.5391 12.4734 31.9142 12.0983C32.2893 11.7232 32.5 11.2145 32.5 10.6841C32.5 10.1536 32.2893 9.64494 31.9142 9.26987C31.5391 8.8948 31.0304 8.68408 30.5 8.68408Z" fill="#9676B5"/>
<path d="M46.5 8.68408C46.2425 8.6858 45.9878 8.73742 45.75 8.83608C46.1179 8.98519 46.4329 9.24071 46.6547 9.56994C46.8766 9.89917 46.995 10.2871 46.995 10.6841C46.995 11.0811 46.8766 11.469 46.6547 11.7982C46.4329 12.1274 46.1179 12.383 45.75 12.5321C45.9878 12.6307 46.2425 12.6824 46.5 12.6841C47.0304 12.6841 47.5391 12.4734 47.9142 12.0983C48.2893 11.7232 48.5 11.2145 48.5 10.6841C48.5 10.1536 48.2893 9.64494 47.9142 9.26987C47.5391 8.8948 47.0304 8.68408 46.5 8.68408Z" fill="#2B8EC6"/>
<path d="M54.5 28.6841C54.2425 28.6858 53.9878 28.7374 53.75 28.8361C54.1179 28.9852 54.4329 29.2407 54.6547 29.5699C54.8766 29.8992 54.995 30.2871 54.995 30.6841C54.995 31.0811 54.8766 31.469 54.6547 31.7982C54.4329 32.1274 54.1179 32.383 53.75 32.5321C53.9878 32.6307 54.2425 32.6824 54.5 32.6841C55.0304 32.6841 55.5391 32.4734 55.9142 32.0983C56.2893 31.7232 56.5 31.2145 56.5 30.6841C56.5 30.1536 56.2893 29.6449 55.9142 29.2699C55.5391 28.8948 55.0304 28.6841 54.5 28.6841Z" fill="#F7B546"/>
<path d="M8.5 36.6841C8.24253 36.6858 7.98783 36.7374 7.75 36.8361C8.11791 36.9852 8.43294 37.2407 8.65475 37.5699C8.87655 37.8992 8.99505 38.2871 8.99505 38.6841C8.99505 39.0811 8.87655 39.469 8.65475 39.7982C8.43294 40.1275 8.11791 40.383 7.75 40.5321C7.98783 40.6307 8.24253 40.6824 8.5 40.6841C9.03043 40.6841 9.53914 40.4734 9.91421 40.0983C10.2893 39.7232 10.5 39.2145 10.5 38.6841C10.5 38.1536 10.2893 37.6449 9.91421 37.2699C9.53914 36.8948 9.03043 36.6841 8.5 36.6841Z" fill="#E13340"/>
<path d="M48.5 52.6841C49.6046 52.6841 50.5 51.7887 50.5 50.6841C50.5 49.5795 49.6046 48.6841 48.5 48.6841C47.3954 48.6841 46.5 49.5795 46.5 50.6841C46.5 51.7887 47.3954 52.6841 48.5 52.6841Z" fill="#F04C4D"/>
<path d="M48.5 48.6841C48.2425 48.6858 47.9878 48.7374 47.75 48.8361C48.1179 48.9852 48.4329 49.2407 48.6547 49.5699C48.8766 49.8992 48.995 50.2871 48.995 50.6841C48.995 51.0811 48.8766 51.469 48.6547 51.7982C48.4329 52.1275 48.1179 52.383 47.75 52.5321C47.9878 52.6307 48.2425 52.6824 48.5 52.6841C49.0304 52.6841 49.5391 52.4734 49.9142 52.0983C50.2893 51.7232 50.5 51.2145 50.5 50.6841C50.5 50.1536 50.2893 49.6449 49.9142 49.2699C49.5391 48.8948 49.0304 48.6841 48.5 48.6841Z" fill="#E13340"/>
<path d="M53.3452 43.76C53.1076 43.7597 52.8779 43.6748 52.6972 43.5205C52.5166 43.3662 52.3967 43.1526 52.3592 42.918C52.2554 42.2669 52.0913 41.6268 51.8692 41.006C51.7811 40.7557 51.7961 40.4806 51.9109 40.2413C52.0257 40.002 52.2308 39.8181 52.4812 39.73C52.7315 39.642 53.0066 39.657 53.2459 39.7718C53.4852 39.8865 53.6691 40.0917 53.7572 40.342C54.0152 41.0771 54.2086 41.8333 54.3352 42.602C54.3577 42.7451 54.349 42.8913 54.3096 43.0306C54.2702 43.1699 54.2011 43.2991 54.107 43.4091C54.0129 43.5192 53.8961 43.6076 53.7646 43.6681C53.6331 43.7287 53.49 43.76 53.3452 43.76Z" fill="#F04C4D"/>
<path d="M24.529 14.766C24.2833 14.7664 24.0461 14.6759 23.863 14.512C23.5893 14.2681 23.3044 14.0371 23.009 13.82C22.8038 13.6595 22.6693 13.4253 22.6342 13.1672C22.599 12.9091 22.6659 12.6475 22.8207 12.438C22.9755 12.2285 23.2059 12.0877 23.4629 12.0454C23.72 12.0032 23.9833 12.063 24.197 12.212C24.5422 12.4669 24.8752 12.7379 25.195 13.024C25.3447 13.1592 25.45 13.3366 25.497 13.5327C25.5441 13.7289 25.5307 13.9347 25.4587 14.1231C25.3866 14.3115 25.2593 14.4738 25.0934 14.5885C24.9275 14.7032 24.7307 14.7651 24.529 14.766Z" fill="#499ED7"/>
<path d="M34.0881 29.7159C33.8922 29.7164 33.7005 29.6592 33.5367 29.5516C33.373 29.444 33.2445 29.2907 33.1671 29.1107C33.0898 28.9306 33.067 28.7319 33.1017 28.539C33.1364 28.3462 33.2269 28.1678 33.3621 28.0259C36.0237 25.2407 37.5057 21.5344 37.4981 17.6819C37.4981 15.4159 36.9721 13.1419 35.9801 11.1079C35.916 10.9893 35.8765 10.859 35.8641 10.7247C35.8516 10.5904 35.8664 10.455 35.9077 10.3266C35.9489 10.1982 36.0156 10.0795 36.1039 9.97759C36.1922 9.87567 36.3002 9.79265 36.4214 9.73354C36.5426 9.67442 36.6745 9.64043 36.8092 9.63361C36.9438 9.62678 37.0785 9.64726 37.2051 9.69382C37.3316 9.74038 37.4474 9.81205 37.5456 9.90453C37.6437 9.99701 37.7221 10.1084 37.7761 10.2319C38.9056 12.5539 39.4937 15.1018 39.4961 17.6839C39.5043 22.0498 37.8246 26.2498 34.8081 29.4059C34.7159 29.5044 34.6044 29.5827 34.4805 29.6361C34.3566 29.6894 34.223 29.7166 34.0881 29.7159Z" fill="#92CA62"/>
<path d="M16.5 29.6841C17.0523 29.6841 17.5 29.2364 17.5 28.6841C17.5 28.1318 17.0523 27.6841 16.5 27.6841C15.9477 27.6841 15.5 28.1318 15.5 28.6841C15.5 29.2364 15.9477 29.6841 16.5 29.6841Z" fill="#92CA62"/>
</svg>
