<svg xmlns="http://www.w3.org/2000/svg" width="25" height="25" viewBox="0 0 25 25" fill="none">
<path fill-rule="evenodd" clip-rule="evenodd" d="M13.1016 7.06226C13.1016 4.43891 15.2282 2.31226 17.8516 2.31226C20.475 2.31226 22.6016 4.43891 22.6016 7.06226C22.6016 9.68561 20.475 11.8123 17.8516 11.8123C15.2282 11.8123 13.1016 9.68561 13.1016 7.06226Z" fill="white"/>
<path fill-rule="evenodd" clip-rule="evenodd" d="M1.60156 7.06226C1.60156 4.43891 3.72821 2.31226 6.35156 2.31226C8.97491 2.31226 11.1016 4.43891 11.1016 7.06226C11.1016 9.68561 8.97491 11.8123 6.35156 11.8123C3.72821 11.8123 1.60156 9.68561 1.60156 7.06226Z" fill="white"/>
<path fill-rule="evenodd" clip-rule="evenodd" d="M13.1016 18.5623C13.1016 15.9389 15.2282 13.8123 17.8516 13.8123C20.475 13.8123 22.6016 15.9389 22.6016 18.5623C22.6016 21.1857 20.475 23.3123 17.8516 23.3123C15.2282 23.3123 13.1016 21.1857 13.1016 18.5623Z" fill="white"/>
<path fill-rule="evenodd" clip-rule="evenodd" d="M1.60156 18.5623C1.60156 15.9389 3.72821 13.8123 6.35156 13.8123C8.97491 13.8123 11.1016 15.9389 11.1016 18.5623C11.1016 21.1857 8.97491 23.3123 6.35156 23.3123C3.72821 23.3123 1.60156 21.1857 1.60156 18.5623Z" fill="white"/>
</svg>