<svg width="29" height="30" viewBox="0 0 29 30" fill="none" xmlns="http://www.w3.org/2000/svg">
<path fill-rule="evenodd" clip-rule="evenodd" d="M2.15641 5.64976C2.15643 3.71333 3.72623 2.14355 5.66265 2.14355H20.8562C22.7926 2.14355 24.3624 3.71336 24.3624 5.6498V14.9807C23.3789 14.4929 22.1535 14.6585 21.3342 15.4778L14.3217 22.4903C13.8286 22.9835 13.5515 23.6524 13.5515 24.3497V27.856H5.66249C3.72603 27.856 2.15624 26.2861 2.15625 24.3497L2.15641 5.64976ZM8.58436 6.81854C7.93888 6.81854 7.41561 7.34181 7.41561 7.98729C7.41561 8.63276 7.93888 9.15604 8.58436 9.15604H17.9343C18.5798 9.15604 19.1031 8.63276 19.1031 7.98729C19.1031 7.34181 18.5798 6.81854 17.9343 6.81854H8.58436ZM8.58436 12.6623C7.93888 12.6623 7.41561 13.1855 7.41561 13.831C7.41561 14.4765 7.93888 14.9998 8.58436 14.9998H17.9343C18.5798 14.9998 19.1031 14.4765 19.1031 13.831C19.1031 13.1855 18.5798 12.6623 17.9343 12.6623H8.58436Z" fill="white"/>
<path d="M22.3665 16.5103C22.8229 16.0539 23.563 16.0539 24.0194 16.5103L26.3569 18.8478C26.8133 19.3042 26.8133 20.0442 26.3569 20.5006L19.3444 27.5131C19.1252 27.7322 18.8279 27.8554 18.518 27.8554H16.1805C15.535 27.8554 15.0117 27.3322 15.0117 26.6867V24.3492C15.0117 24.0392 15.1349 23.7419 15.354 23.5227L22.3665 16.5103Z" fill="white"/>
</svg>
