<svg xmlns="http://www.w3.org/2000/svg" width="29" height="30" viewBox="0 0 29 30" fill="none">
<path fill-rule="evenodd" clip-rule="evenodd" d="M2.65641 5.64976C2.65643 3.71333 4.22623 2.14355 6.16265 2.14355H21.3562C23.2926 2.14355 24.8624 3.71336 24.8624 5.6498V14.9807C23.8789 14.4929 22.6535 14.6585 21.8342 15.4778L14.8217 22.4903C14.3286 22.9835 14.0515 23.6524 14.0515 24.3497V27.856H6.16249C4.22603 27.856 2.65624 26.2861 2.65625 24.3497L2.65641 5.64976ZM9.08436 6.81854C8.43888 6.81854 7.91561 7.34181 7.91561 7.98729C7.91561 8.63276 8.43888 9.15604 9.08436 9.15604H18.4343C19.0798 9.15604 19.6031 8.63276 19.6031 7.98729C19.6031 7.34181 19.0798 6.81854 18.4343 6.81854H9.08436ZM9.08436 12.6623C8.43888 12.6623 7.91561 13.1855 7.91561 13.831C7.91561 14.4765 8.43888 14.9998 9.08436 14.9998H18.4343C19.0798 14.9998 19.6031 14.4765 19.6031 13.831C19.6031 13.1855 19.0798 12.6623 18.4343 12.6623H9.08436Z" fill="#0A86FF"/>
<path d="M22.8665 16.5103C23.3229 16.0539 24.063 16.0539 24.5194 16.5103L26.8569 18.8478C27.3133 19.3042 27.3133 20.0442 26.8569 20.5006L19.8444 27.5131C19.6252 27.7322 19.3279 27.8554 19.018 27.8554H16.6805C16.035 27.8554 15.5117 27.3322 15.5117 26.6867V24.3492C15.5117 24.0392 15.6349 23.7419 15.854 23.5227L22.8665 16.5103Z" fill="#0A86FF"/>
</svg>