<svg width="235" height="122" viewBox="0 0 235 122" fill="none" xmlns="http://www.w3.org/2000/svg">
<g opacity="0.1">
<path d="M223.878 56.9889C223.878 88.4247 198.394 113.908 166.959 113.908C135.523 113.908 110.039 88.4247 110.039 56.9889C110.039 25.5531 135.523 0.0693359 166.959 0.0693359C198.394 0.0693359 223.878 25.5531 223.878 56.9889ZM121.845 56.9889C121.845 81.9047 142.043 102.103 166.959 102.103C191.874 102.103 212.073 81.9047 212.073 56.9889C212.073 32.0731 191.874 11.8749 166.959 11.8749C142.043 11.8749 121.845 32.0731 121.845 56.9889Z" fill="#1F4797"/>
<path d="M205.117 102.074L215.85 91.3414L229.633 105.124C232.597 108.088 232.597 112.893 229.633 115.857C226.669 118.821 221.864 118.821 218.9 115.857L205.117 102.074Z" fill="#1F4797"/>
<circle cx="166.918" cy="60.1608" r="17.57" fill="white"/>
<path fillRule="evenodd" clipRule="evenodd" d="M168.788 36.125C167.249 34.8424 165.013 34.8424 163.474 36.125L158.372 40.3767H150.716C148.423 40.3767 146.565 42.2348 146.565 44.527V52.1838L142.314 57.2858C141.031 58.8248 141.031 61.0605 142.314 62.5997L146.565 67.7016L146.565 75.3585C146.565 77.6507 148.423 79.5089 150.716 79.5089H158.372L163.474 83.7605C165.013 85.0431 167.249 85.0431 168.788 83.7605L173.89 79.5089H181.547C183.839 79.5089 185.697 77.6507 185.697 75.3585V67.7016L189.949 62.5997C191.232 61.0605 191.232 58.8248 189.949 57.2858L185.697 52.1838V44.527C185.697 42.2348 183.839 40.3767 181.547 40.3767H173.89L168.788 36.125ZM174.342 56.1171C175.504 55.5121 175.955 54.0797 175.35 52.918C174.745 51.7563 173.312 51.3051 172.151 51.9101C168.764 53.674 166.001 57.0505 164.175 59.7132C164.017 59.9437 163.865 60.1714 163.718 60.3948C163.386 60.899 163.083 61.3828 162.81 61.8332C162.607 61.661 162.409 61.5021 162.221 61.3568C162.161 61.3105 162.102 61.2654 162.044 61.2218C161.533 60.8374 161.074 60.5343 160.739 60.3251C160.57 60.22 160.431 60.1375 160.33 60.0789C160.28 60.0497 160.239 60.0263 160.208 60.0092L160.17 59.9881L160.157 59.981L160.152 59.9783L160.148 59.9762C158.997 59.351 157.558 59.7772 156.932 60.9282C156.307 62.0789 156.734 63.519 157.884 64.1444L157.889 64.147L157.953 64.1833C158.013 64.2181 158.107 64.2741 158.228 64.3493C158.471 64.5008 158.812 64.7259 159.191 65.011C159.982 65.6067 160.788 66.3545 161.277 67.1331C161.736 67.8648 162.557 68.2886 163.42 68.2397C164.282 68.1909 165.05 67.6765 165.424 66.8981L165.429 66.8858L165.46 66.8248C165.488 66.7684 165.531 66.6813 165.59 66.5673C165.707 66.3389 165.884 66.003 166.114 65.588C166.577 64.7558 167.25 63.6174 168.087 62.3955C169.819 59.8702 172.036 57.3178 174.342 56.1171Z" fill="#1F4797"/>
<rect x="28.4598" y="28.5252" width="56.9196" height="56.9196" stroke="#1E90FF" stroke-width="3.79464" stroke-linecap="round" stroke-linejoin="round" stroke-dasharray="30.36 30.36"/>
<rect x="34.1484" y="56.9922" width="45.5357" height="3.79464" rx="1.89732" fill="#1E90FF"/>
<path d="M113.839 56.9889C113.839 88.4247 88.3554 113.908 56.9196 113.908C25.4838 113.908 0 88.4247 0 56.9889C0 25.5531 25.4838 0.0693359 56.9196 0.0693359C88.3554 0.0693359 113.839 25.5531 113.839 56.9889ZM11.8055 56.9889C11.8055 81.9047 32.0038 102.103 56.9196 102.103C81.8354 102.103 102.034 81.9047 102.034 56.9889C102.034 32.0731 81.8354 11.8749 56.9196 11.8749C32.0038 11.8749 11.8055 32.0731 11.8055 56.9889Z" fill="#1F4797"/>
</g>
</svg>
