<svg width="122" height="33" viewBox="0 0 122 33" fill="none" xmlns="http://www.w3.org/2000/svg">
<g clip-path="url(#clip0_1386_5515)">
<rect x="0.015625" y="1.21484" width="30.3249" height="30.5306" rx="15.1624" fill="url(#paint0_linear_1386_5515)"/>
<circle opacity="0.7" cx="16.403" cy="25.7499" r="15.5124" fill="#0772D9"/>
<rect opacity="0.4" x="8.74219" y="9.55469" width="13.8227" height="15.5505" fill="white"/>
<rect x="7.875" y="8.69067" width="13.6376" height="15.7356" fill="white"/>
<g filter="url(#filter0_d_1386_5515)">
<path fill-rule="evenodd" clip-rule="evenodd" d="M15.8828 12.9718C15.6913 12.8111 15.4131 12.811 15.2215 12.9716L14.5864 13.5039L13.6337 13.5035C13.3484 13.5034 13.1171 13.7361 13.117 14.0233L13.1166 14.9825L12.5873 15.6214C12.4276 15.8142 12.4274 16.0943 12.587 16.2872L13.1157 16.9266L13.1153 17.8858C13.1152 18.173 13.3463 18.4059 13.6315 18.406L14.5843 18.4064L15.219 18.9393C15.4104 19.1001 15.6886 19.1002 15.8802 18.9396L16.5153 18.4072L17.4681 18.4077C17.7533 18.4078 17.9846 18.1751 17.9847 17.8879L17.9851 16.9287L18.5145 16.2897C18.6742 16.097 18.6743 15.8169 18.5148 15.624L17.986 14.9846L17.9864 14.0254C17.9865 13.7382 17.7554 13.5053 17.4702 13.5052L16.5174 13.5048L15.8828 12.9718ZM16.5728 15.4767C16.7173 15.401 16.7736 15.2216 16.6984 15.076C16.6231 14.9305 16.4449 14.8738 16.3003 14.9496C15.8788 15.1704 15.5348 15.5932 15.3075 15.9267C15.2878 15.9556 15.2688 15.9841 15.2505 16.0121C15.2092 16.0752 15.1714 16.1358 15.1375 16.1922C15.1122 16.1707 15.0876 16.1507 15.0642 16.1325C15.0567 16.1267 15.0494 16.1211 15.0422 16.1156C14.9787 16.0674 14.9215 16.0294 14.8798 16.0032C14.8589 15.99 14.8416 15.9797 14.829 15.9723C14.8227 15.9687 14.8176 15.9657 14.8138 15.9636L14.8091 15.9609L14.8075 15.9601L14.8069 15.9597L14.8064 15.9595C14.6632 15.8811 14.484 15.9344 14.4061 16.0785C14.3283 16.2227 14.3813 16.4031 14.5244 16.4815L14.5251 16.4818L14.5329 16.4864C14.5404 16.4908 14.5522 16.4978 14.5672 16.5072C14.5974 16.5262 14.6398 16.5544 14.6869 16.5902C14.7854 16.6648 14.8856 16.7586 14.9464 16.8561C15.0036 16.9478 15.1057 17.001 15.213 16.9949C15.3203 16.9888 15.4158 16.9244 15.4624 16.8269L15.4632 16.8254L15.4669 16.8177C15.4704 16.8107 15.4758 16.7998 15.4831 16.7855C15.4977 16.7569 15.5197 16.7148 15.5485 16.6628C15.6061 16.5586 15.6898 16.416 15.7941 16.263C16.0098 15.9467 16.2858 15.6271 16.5728 15.4767Z" fill="#16974D"/>
<path d="M16.4331 15.203L16.4331 15.203C16.0769 15.3897 15.7657 15.7626 15.544 16.0878C15.5253 16.1152 15.5073 16.1422 15.4899 16.1687L16.4331 15.203ZM16.4331 15.203C16.4362 15.2014 16.4413 15.2018 16.4442 15.2074C16.4457 15.2104 16.4461 15.2134 16.4449 15.217C16.4444 15.2188 16.4436 15.2202 16.4428 15.2211C16.4422 15.2218 16.4415 15.2225 16.44 15.2233L16.5728 15.4767M16.4331 15.203L16.5728 15.4767M16.5728 15.4767L16.44 15.2233C16.0877 15.4078 15.7788 15.7775 15.5577 16.1018L15.5577 16.1018M16.5728 15.4767L15.5577 16.1018M14.6737 16.2131L14.6737 16.2131L14.6704 16.2112L14.6684 16.2102C14.6652 16.2088 14.6607 16.2094 14.6579 16.2145L14.6579 16.2145C14.6563 16.2174 14.6559 16.2204 14.657 16.2241C14.658 16.2274 14.6596 16.2291 14.6614 16.2303L14.6684 16.234L14.6683 16.2341L14.6761 16.2387L14.677 16.2392C14.6872 16.2451 14.7016 16.2537 14.7193 16.2649L14.7196 16.265C14.7553 16.2875 14.8048 16.3204 14.8599 16.3622L14.8599 16.3622C14.9701 16.4458 15.1018 16.5644 15.1893 16.7048L15.1893 16.7048C15.1914 16.7083 15.1945 16.7093 15.1968 16.7092L14.6737 16.2131ZM14.6737 16.2131L14.685 16.2196C14.6953 16.2256 14.7098 16.2343 14.7275 16.2454L14.7275 16.2454C14.7637 16.2682 14.8137 16.3014 14.8692 16.3436L14.8889 16.3586C14.9092 16.3745 14.9303 16.3916 14.9519 16.41L15.2087 16.629L15.3827 16.3397C15.415 16.2861 15.4508 16.2286 15.4899 16.1688L14.6737 16.2131ZM15.2042 16.7036L15.2043 16.7035L15.205 16.702L15.2063 16.6992L15.2064 16.6992L15.2101 16.6915L15.2103 16.6912C15.2143 16.683 15.2203 16.6709 15.2282 16.6555L15.2042 16.7036ZM15.2042 16.7036C15.2023 16.7076 15.199 16.7091 15.1968 16.7092L15.2042 16.7036ZM15.5577 16.1018C15.4472 16.2639 15.3588 16.4144 15.298 16.5244L15.5577 16.1018ZM16.0668 12.7527L16.0668 12.7527C15.769 12.5027 15.3357 12.5025 15.0377 12.7523C15.0377 12.7523 15.0377 12.7523 15.0377 12.7523L14.4824 13.2177L13.6338 13.2174C13.1887 13.2172 12.831 13.5798 12.8309 14.0231L12.8305 14.8793L12.3669 15.4389C12.3669 15.4389 12.3669 15.4389 12.3669 15.4389C12.1195 15.7375 12.1194 16.1707 12.3665 16.4695L12.3665 16.4695L12.8296 17.0295L12.8292 17.8857C12.829 18.3291 13.1863 18.6919 13.6314 18.6921L14.4801 18.6925L15.0349 19.1585C15.3327 19.4085 15.766 19.4087 16.064 19.1589L16.064 19.1589L16.6193 18.6934L17.4679 18.6938C17.913 18.694 18.2707 18.3314 18.2709 17.888L18.2712 17.0319L18.7348 16.4723L18.7348 16.4723C18.9822 16.1737 18.9824 15.7404 18.7353 15.4417C18.7353 15.4417 18.7353 15.4417 18.7353 15.4416L18.2722 14.8817L18.2725 14.0255C18.2727 13.5821 17.9154 13.2192 17.4703 13.219L16.6217 13.2187L16.0668 12.7527Z" stroke="white" stroke-width="0.572271"/>
</g>
<path d="M22.4648 13.5703C23.6871 17.4653 21.5209 21.6136 17.6265 22.8357C13.732 24.0579 9.58402 21.8911 8.36168 17.9961C7.13934 14.1011 9.30552 9.95284 13.2 8.73067C17.0944 7.5085 21.2424 9.67527 22.4648 13.5703ZM9.81882 17.5389C10.7886 20.629 14.0794 22.348 17.1691 21.3784C20.2588 20.4088 21.9774 17.1177 21.0076 14.0276C20.0379 10.9374 16.747 9.2184 13.6573 10.188C10.5676 11.1576 8.84907 14.4487 9.81882 17.5389Z" fill="#2C2B2B"/>
<path d="M21.7175 21.9878L22.7903 20.4834L25.9011 22.7024C26.3165 22.9987 26.4131 23.5757 26.1168 23.9912C25.8206 24.4066 25.2437 24.5032 24.8283 24.2068L21.7175 21.9878Z" fill="#2C2B2B"/>
</g>
<path d="M45.7766 24.4935L39.5727 7.4404L43.0803 7.44192L47.7997 21.133L52.5554 7.44603L56.0386 7.44754L49.82 24.4953L45.7766 24.4935ZM61.4508 24.7926C60.2167 24.7921 59.1207 24.5318 58.1629 24.0117C57.2213 23.4754 56.4828 22.7363 55.9473 21.7942C55.4281 20.8359 55.1687 19.7316 55.1693 18.4812C55.1698 17.1984 55.4301 16.0699 55.9502 15.0958C56.4865 14.1055 57.2257 13.3345 58.1678 12.7828C59.1098 12.2149 60.2061 11.9312 61.4564 11.9317C62.6743 11.9322 63.7378 12.2006 64.6469 12.7369C65.5561 13.2732 66.2621 13.9961 66.7651 14.9057C67.2681 15.8152 67.5194 16.8465 67.5189 17.9994C67.5188 18.1618 67.5187 18.3485 67.5186 18.5596C67.5185 18.7545 67.5022 18.9575 67.4696 19.1686L57.5073 19.1642L57.5082 17.1669L64.2066 17.1698C64.1582 16.3741 63.8743 15.7488 63.3549 15.2939C62.8517 14.839 62.2185 14.6114 61.4553 14.6111C60.9031 14.6108 60.3916 14.7405 59.9205 15.0001C59.4495 15.2435 59.0759 15.6249 58.7996 16.1444C58.5396 16.664 58.4094 17.3216 58.409 18.1173L58.4087 18.8236C58.4084 19.4894 58.53 20.074 58.7733 20.5775C59.0329 21.0648 59.39 21.4466 59.8446 21.7228C60.2991 21.9828 60.8268 22.113 61.4276 22.1132C62.0285 22.1135 62.5238 21.9838 62.9136 21.7242C63.3197 21.4645 63.6203 21.1318 63.8153 20.7259L67.1767 20.7273C66.949 21.4904 66.5671 22.1804 66.031 22.7972C65.4948 23.4141 64.837 23.9009 64.0574 24.2579C63.2778 24.6148 62.4089 24.793 61.4508 24.7926ZM69.2348 24.5037L69.2401 12.2274L72.163 12.2286L72.4787 14.4941C72.7712 13.9583 73.1368 13.5038 73.5754 13.1305C74.0302 12.7572 74.5419 12.4651 75.1103 12.2543C75.695 12.0434 76.3365 11.9382 77.0347 11.9385L77.0332 15.4216L75.9127 15.4211C75.4256 15.4209 74.9709 15.4776 74.5486 15.591C74.1426 15.7045 73.7853 15.8911 73.4767 16.1508C73.168 16.3943 72.9324 16.7352 72.7698 17.1735C72.6073 17.6119 72.5258 18.164 72.5255 18.8297L72.5231 24.5051L69.2348 24.5037ZM79.7837 29.867L82.7583 23.1455L82.0276 23.1452L77.112 12.2308L80.6926 12.2323L84.1967 20.1501L87.3666 12.2352L90.8498 12.2367L83.2669 29.8685L79.7837 29.867ZM92.5134 24.5138L92.5192 11.1414C92.5196 10.1183 92.6905 9.30649 93.0317 8.70581C93.373 8.10514 93.8603 7.66691 94.4938 7.39113C95.1434 7.11536 95.8986 6.97766 96.7592 6.97803L98.2694 6.97868L98.2682 9.77983L97.2452 9.77938C96.7255 9.77916 96.352 9.88454 96.1246 10.0955C95.9134 10.2903 95.8077 10.6394 95.8075 11.1428L95.8017 24.5152L92.5134 24.5138ZM90.8368 14.9892L90.838 12.2367L98.462 12.24L98.4608 14.9925L90.8368 14.9892ZM98.9461 24.5166L105.189 7.46884L108.916 7.47045L115.12 24.5236L111.636 24.5221L107.039 11.2207L102.405 24.5181L98.9461 24.5166ZM101.7 20.6449L102.578 18.0877L111.25 18.0914L112.101 20.6494L101.7 20.6449ZM116.386 24.5241L116.393 7.47369L119.682 7.47512L119.674 24.5255L116.386 24.5241Z" fill="#1E293B"/>
<defs>
<filter id="filter0_d_1386_5515" x="10.7539" y="11.1343" width="9.59377" height="9.6426" filterUnits="userSpaceOnUse" color-interpolation-filters="sRGB">
<feFlood flood-opacity="0" result="BackgroundImageFix"/>
<feColorMatrix in="SourceAlpha" type="matrix" values="0 0 0 0 0 0 0 0 0 0 0 0 0 0 0 0 0 0 127 0" result="hardAlpha"/>
<feOffset/>
<feGaussianBlur stdDeviation="0.572271"/>
<feComposite in2="hardAlpha" operator="out"/>
<feColorMatrix type="matrix" values="0 0 0 0 0 0 0 0 0 0 0 0 0 0 0 0 0 0 0.3 0"/>
<feBlend mode="normal" in2="BackgroundImageFix" result="effect1_dropShadow_1386_5515"/>
<feBlend mode="normal" in="SourceGraphic" in2="effect1_dropShadow_1386_5515" result="shape"/>
</filter>
<linearGradient id="paint0_linear_1386_5515" x1="4.96673" y1="1.21484" x2="25.3894" y2="31.7455" gradientUnits="userSpaceOnUse">
<stop stop-color="#1E90FF"/>
<stop offset="0.64" stop-color="#0378EB"/>
<stop offset="0.974215" stop-color="#0376E6"/>
</linearGradient>
<clipPath id="clip0_1386_5515">
<rect x="0.015625" y="1.21484" width="30.3249" height="30.5306" rx="15.1624" fill="white"/>
</clipPath>
</defs>
</svg>
