<svg width="137" height="41" viewBox="0 0 137 41" fill="none" xmlns="http://www.w3.org/2000/svg">
<g clip-path="url(#clip0_1150_5010)">
<rect x="0.015625" y="2.75195" width="34.2778" height="34.5104" rx="17.1389" fill="url(#paint0_linear_1150_5010)"/>
<circle opacity="0.7" cx="18.511" cy="30.4885" r="17.5344" fill="#0772D9"/>
<rect opacity="0.4" x="9.84375" y="12.1768" width="15.6245" height="17.5776" fill="white"/>
<rect x="8.86719" y="11.2002" width="15.4153" height="17.7868" fill="white"/>
<g filter="url(#filter0_d_1150_5010)">
<path fill-rule="evenodd" clip-rule="evenodd" d="M17.902 16.0383C17.6856 15.8566 17.3711 15.8564 17.1546 16.038L16.4367 16.6397L15.3597 16.6393C15.0373 16.6391 14.7759 16.9021 14.7757 17.2267L14.7752 18.311L14.1769 19.0333C13.9964 19.2511 13.9963 19.5677 14.1766 19.7858L14.7743 20.5085L14.7738 21.5928C14.7737 21.9174 15.0349 22.1807 15.3573 22.1808L16.4343 22.1813L17.1517 22.7837C17.3681 22.9654 17.6825 22.9655 17.8991 22.784L18.617 22.1822L19.6939 22.1827C20.0164 22.1828 20.2778 21.9198 20.278 21.5952L20.2784 20.5109L20.8768 19.7887C21.0573 19.5708 21.0574 19.2542 20.8771 19.0362L20.2794 18.3134L20.2799 17.2291C20.28 16.9045 20.0188 16.6413 19.6963 16.6411L18.6194 16.6407L17.902 16.0383ZM18.682 18.8697C18.8454 18.7841 18.9089 18.5813 18.8239 18.4168C18.7389 18.2522 18.5374 18.1882 18.374 18.2738C17.8976 18.5234 17.5087 19.0014 17.2518 19.3783C17.2295 19.411 17.208 19.4432 17.1873 19.4748C17.1406 19.5462 17.098 19.6147 17.0596 19.6785C17.031 19.6541 17.0032 19.6316 16.9768 19.611C16.9683 19.6044 16.96 19.598 16.9519 19.5918C16.8801 19.5374 16.8155 19.4944 16.7683 19.4648C16.7446 19.4499 16.7251 19.4382 16.7109 19.4299C16.7038 19.4258 16.698 19.4224 16.6937 19.42L16.6884 19.417L16.6866 19.416L16.6859 19.4156L16.6853 19.4153C16.5235 19.3267 16.3209 19.387 16.2329 19.55C16.1449 19.7129 16.2049 19.9168 16.3666 20.0055L16.3673 20.0058L16.3762 20.011C16.3847 20.0159 16.398 20.0238 16.4149 20.0345C16.4491 20.056 16.4971 20.0879 16.5503 20.1283C16.6615 20.2127 16.7749 20.3186 16.8436 20.4289C16.9082 20.5325 17.0236 20.5926 17.1449 20.5857C17.2662 20.5789 17.3742 20.5061 17.4269 20.3959L17.4277 20.3941L17.432 20.3855C17.4359 20.3775 17.442 20.3652 17.4503 20.349C17.4668 20.3167 17.4916 20.2692 17.5241 20.2104C17.5892 20.0926 17.6839 19.9314 17.8018 19.7584C18.0456 19.4009 18.3576 19.0396 18.682 18.8697Z" fill="#16974D"/>
<path d="M18.374 18.2738L18.5241 18.5603C18.1214 18.7713 17.7696 19.1929 17.519 19.5605C17.498 19.5914 17.4776 19.6219 17.458 19.6519L18.374 18.2738ZM18.374 18.2738L18.5241 18.5603C18.5276 18.5585 18.5333 18.559 18.5366 18.5652C18.5377 18.5674 18.5381 18.569 18.5382 18.5704C18.5383 18.5721 18.5381 18.5741 18.5375 18.5761C18.5368 18.5781 18.5359 18.5797 18.5351 18.5807C18.5344 18.5815 18.5335 18.5823 18.5319 18.5832L18.682 18.8697M18.374 18.2738L18.682 18.8697M18.682 18.8697L18.5319 18.5832C18.1336 18.7918 17.7845 19.2097 17.5346 19.5762L17.5346 19.5763M18.682 18.8697L17.5346 19.5763M16.5481 19.7094L16.5354 19.702L16.5353 19.702L16.5315 19.6999L16.5294 19.6987C16.5258 19.6972 16.5206 19.6979 16.5175 19.7036L16.5175 19.7036C16.5164 19.7057 16.516 19.7073 16.5159 19.7087C16.5157 19.7104 16.5158 19.7124 16.5164 19.7144C16.5171 19.7165 16.518 19.7181 16.5188 19.7192C16.5194 19.7199 16.5202 19.7207 16.5215 19.7215L16.5293 19.7257L16.5292 19.7258L16.5381 19.731L16.5391 19.7316C16.5506 19.7382 16.5669 19.748 16.5869 19.7606L16.5872 19.7607C16.6276 19.7862 16.6836 19.8234 16.7458 19.8706L16.7458 19.8706C16.8704 19.9651 17.0192 20.0991 17.1181 20.2578L17.1181 20.2579C17.1206 20.2617 17.124 20.263 17.1267 20.2628C17.1291 20.2627 17.1328 20.261 17.135 20.2564L17.1351 20.2564L17.1359 20.2546L17.1374 20.2515L17.1374 20.2515L17.1417 20.2429L17.1419 20.2425C17.1464 20.2332 17.1532 20.2196 17.1622 20.2021L16.5481 19.7094ZM16.5481 19.7094C16.5598 19.7162 16.5761 19.726 16.5962 19.7386L16.5962 19.7386C16.637 19.7643 16.6936 19.8019 16.7564 19.8495L16.7786 19.8666C16.8015 19.8844 16.8254 19.9038 16.8498 19.9246L17.1401 20.1721L17.3368 19.8452C17.3733 19.7845 17.4138 19.7195 17.458 19.6519L16.5481 19.7094ZM17.5346 19.5763C17.4097 19.7594 17.3098 19.9296 17.2411 20.0539M17.5346 19.5763L17.2411 20.0539M17.2411 20.0539C17.2067 20.116 17.1802 20.1667 17.1622 20.202L17.2411 20.0539ZM18.11 15.7906L18.11 15.7906C17.7734 15.508 17.2836 15.5077 16.9468 15.7901L16.3191 16.3162L15.3599 16.3158C14.8568 16.3156 14.4525 16.7254 14.4523 17.2266L14.4519 18.1944L13.9279 18.8269C13.6482 19.1644 13.6481 19.6542 13.9273 19.9919L13.9273 19.9919L14.4508 20.6249L14.4504 21.5927C14.4502 22.0938 14.8541 22.504 15.3572 22.5042L16.3165 22.5046L16.9437 23.0313C16.9437 23.0313 16.9437 23.0313 16.9437 23.0313C17.2803 23.314 17.77 23.3142 18.1069 23.0319L18.1069 23.0318L18.7345 22.5057L19.6938 22.5061C20.1969 22.5063 20.6012 22.0965 20.6014 21.5953L20.6018 20.6275L21.1258 19.995L21.1259 19.995C21.4054 19.6575 21.4057 19.1678 21.1264 18.83C21.1263 18.83 21.1263 18.83 21.1263 18.83L20.6029 18.1971L20.6033 17.2293C20.6035 16.7281 20.1996 16.3179 19.6965 16.3177L18.7372 16.3173L18.11 15.7906Z" stroke="white" stroke-width="0.646868"/>
</g>
<path d="M25.3495 16.7161C26.7311 21.1189 24.2826 25.8079 19.8805 27.1894C15.4784 28.5709 10.7897 26.1217 9.408 21.7189C8.02632 17.3162 10.4749 12.6272 14.877 11.2457C19.2791 9.86419 23.9678 12.3134 25.3495 16.7161ZM11.0551 21.202C12.1512 24.695 15.8711 26.6381 19.3635 25.5421C22.856 24.446 24.7985 20.726 23.7024 17.233C22.6062 13.7401 18.8864 11.797 15.3939 12.893C11.9015 13.989 9.95892 17.7091 11.0551 21.202Z" fill="#2C2B2B"/>
<path d="M24.5048 26.231L25.7175 24.5305L29.2337 27.0387C29.7033 27.3736 29.8124 28.0258 29.4776 28.4954C29.1427 28.965 28.4906 29.0741 28.021 28.7392L24.5048 26.231Z" fill="#2C2B2B"/>
</g>
<path d="M47.0859 30.0205L39.1412 8.60257L42.4451 8.60401L48.9228 26.8397L55.4774 8.60965L58.7201 8.61106L50.7569 30.022L47.0859 30.0205ZM65.2026 30.3954C63.7342 30.3948 62.4291 30.0577 61.2873 29.3842C60.1455 28.7107 59.2485 27.7721 58.5964 26.5685C57.9647 25.365 57.6492 23.9678 57.6499 22.377C57.6506 20.7454 57.9673 19.3281 58.6001 18.1251C59.2532 16.9017 60.151 15.9538 61.2934 15.2812C62.4358 14.5883 63.7616 14.2422 65.2708 14.2428C66.78 14.2435 68.075 14.5806 69.1556 15.2541C70.2362 15.9276 71.072 16.8253 71.663 17.9472C72.2539 19.0488 72.5491 20.2726 72.5485 21.6187C72.5485 21.8226 72.5382 22.047 72.5177 22.2917C72.5176 22.516 72.5073 22.771 72.4867 23.0565L59.8828 23.051L59.8838 20.879L69.4897 20.8831C69.429 19.5982 69.0012 18.5987 68.2061 17.8846C67.411 17.15 66.422 16.7825 65.2391 16.782C64.403 16.7816 63.6381 16.975 62.9445 17.3622C62.2509 17.729 61.6898 18.2794 61.2612 19.0135C60.853 19.7271 60.6487 20.6346 60.6482 21.7359L60.6478 22.5925C60.6473 23.7346 60.8508 24.7034 61.2584 25.499C61.6863 26.2742 62.2469 26.8658 62.9402 27.274C63.6334 27.6618 64.388 27.8559 65.2037 27.8563C66.1827 27.8567 66.9884 27.6429 67.6208 27.2149C68.2532 26.7869 68.7225 26.2058 69.0288 25.4717L72.088 25.4731C71.8225 26.4111 71.3734 27.2573 70.7408 28.0116C70.1083 28.7456 69.3228 29.3265 68.3845 29.7544C67.4665 30.1822 66.4059 30.3959 65.2026 30.3954ZM74.72 30.0324L74.7267 14.614L77.48 14.6152L77.7541 17.5216C78.1011 16.8283 78.55 16.2473 79.1009 15.7784C79.6517 15.2892 80.2943 14.9122 81.0287 14.6474C81.7834 14.3826 82.64 14.2504 83.5986 14.2508L83.5972 17.4935L82.4959 17.4931C81.8636 17.4928 81.2619 17.5741 80.6908 17.737C80.1197 17.8795 79.6097 18.1342 79.1609 18.5012C78.7324 18.8681 78.3957 19.3676 78.1507 19.9997C77.9057 20.6319 77.783 21.417 77.7826 22.3552L77.7792 30.0338L74.72 30.0324ZM86.9489 36.768L90.7154 28.3262L89.8282 28.3258L83.7464 14.6179L87.0503 14.6194L91.879 25.8182L96.748 14.6236L99.9601 14.625L90.1611 36.7694L86.9489 36.768ZM102.257 30.0444L102.264 12.5457C102.265 11.4852 102.438 10.6185 102.785 9.94562C103.153 9.27275 103.683 8.78351 104.377 8.47789C105.07 8.17227 105.907 8.01967 106.886 8.02009L108.691 8.02088L108.689 10.6212L107.374 10.6206C106.64 10.6203 106.109 10.773 105.783 11.0788C105.477 11.3642 105.324 11.874 105.323 12.6082L105.316 30.0457L102.257 30.0444ZM99.9984 17.2253L99.9996 14.625L109.024 14.6289L109.023 17.2292L99.9984 17.2253ZM109.679 30.0476L117.55 8.63656L120.885 8.638L128.737 30.0558L125.464 30.0544L119.2 12.3083L112.891 30.049L109.679 30.0476ZM113.23 24.7567L114.087 22.3097L124.152 22.3141L125.008 24.7618L113.23 24.7567ZM130.565 30.0566L130.574 8.6422L133.633 8.64353L133.624 30.058L130.565 30.0566Z" fill="white"/>
<defs>
<filter id="filter0_d_1150_5010" x="12.1008" y="13.9611" width="10.8531" height="10.9" filterUnits="userSpaceOnUse" color-interpolation-filters="sRGB">
<feFlood flood-opacity="0" result="BackgroundImageFix"/>
<feColorMatrix in="SourceAlpha" type="matrix" values="0 0 0 0 0 0 0 0 0 0 0 0 0 0 0 0 0 0 127 0" result="hardAlpha"/>
<feOffset/>
<feGaussianBlur stdDeviation="0.646868"/>
<feComposite in2="hardAlpha" operator="out"/>
<feColorMatrix type="matrix" values="0 0 0 0 0 0 0 0 0 0 0 0 0 0 0 0 0 0 0.3 0"/>
<feBlend mode="normal" in2="BackgroundImageFix" result="effect1_dropShadow_1150_5010"/>
<feBlend mode="normal" in="SourceGraphic" in2="effect1_dropShadow_1150_5010" result="shape"/>
</filter>
<linearGradient id="paint0_linear_1150_5010" x1="5.61212" y1="2.75195" x2="28.6969" y2="37.2623" gradientUnits="userSpaceOnUse">
<stop stop-color="#1E90FF"/>
<stop offset="0.64" stop-color="#0378EB"/>
<stop offset="0.974215" stop-color="#0376E6"/>
</linearGradient>
<clipPath id="clip0_1150_5010">
<rect x="0.015625" y="2.75195" width="34.2778" height="34.5104" rx="17.1389" fill="white"/>
</clipPath>
</defs>
</svg>
