<svg width="246" height="34" viewBox="0 0 246 34" fill="none" xmlns="http://www.w3.org/2000/svg">
<path d="M17.1284 1.71182C19.4143 2.84386 20.1045 4.32442 20.122 5.90662C20.1711 8.66981 21.9767 10.105 25.1246 10.9522C27.1585 11.5043 29.0859 11.7716 31.3027 11.5491C35.9647 11.109 40.4936 10.1355 45.0553 9.29169C51.1064 8.16998 57.1622 7.09222 63.2148 5.98514C63.6998 5.9036 64.252 5.91847 64.6885 5.7385C67.1288 4.76656 69.7226 4.34075 72.3383 3.94222C80.298 2.73456 88.2483 1.6167 96.3114 1.19741C102.353 0.87613 108.339 0.916205 114.326 1.14854C116.69 1.23591 119.071 1.30664 121.454 1.21435C126.009 1.02261 130.421 1.61611 134.869 2.01328C139.201 2.39325 143.544 2.69802 147.875 3.06335C155.176 3.68791 162.466 4.38766 169.796 4.92038C175.002 5.31033 180.243 5.48933 185.475 5.75817C185.608 5.75873 185.739 5.74463 185.855 5.76185C191.495 6.65314 197.307 6.48977 203.063 6.33238C209.083 6.16149 215.032 6.57545 221.099 6.13305C226.468 5.73576 231.859 6.07633 237.255 6.10551C237.75 6.11179 238.317 6.09543 238.716 6.27477C240.386 6.96947 241.999 6.78196 243.74 6.19579C244.968 5.78301 245.893 6.61662 245.549 7.66016C245.261 8.52002 244.526 9.10208 243.481 9.2732C241.635 9.58931 239.712 10.0765 237.901 10.0041C234.449 9.87027 231.216 10.8827 227.849 11.184C226.853 11.2759 225.862 11.4264 224.877 11.4431C219.874 11.5347 214.867 11.597 209.864 11.6886C208.632 11.7022 207.386 11.7763 206.119 11.8232C205.841 11.5273 205.561 11.2169 205.28 10.9064C205.05 10.8866 204.755 10.7849 204.573 10.8636C203.045 11.4862 201.423 11.5859 199.789 11.5831C197.529 11.5735 195.285 11.5473 193.028 11.567C191.282 11.5763 189.525 11.6608 187.767 11.7307C187.142 11.7531 186.459 11.9299 185.894 11.798C182.842 11.1329 179.675 11.5312 176.553 11.6287C171.614 11.7874 166.853 11.1277 162.05 10.6057C158.228 10.2007 154.447 9.6434 150.629 9.28234C145.947 8.82146 141.28 8.32927 136.479 8.53251C135.496 8.5785 134.426 8.51543 133.525 8.25662C129.255 7.04092 124.695 7.36641 120.23 7.16353C116.09 6.98502 111.976 7.57368 107.84 7.77974C102.079 8.07087 96.3253 8.06523 90.5681 8.20798C89.6967 8.22727 88.8144 8.32174 87.9493 8.39958C84.8329 8.73329 81.6979 9.06902 78.5831 9.41736C78.339 9.44349 78.0731 9.44239 77.8353 9.52707C72.9233 11.1782 67.6588 10.9573 62.6231 11.985C59.5569 12.6095 56.4171 13.079 53.4292 13.9023C46.2722 15.8678 38.9445 16.7709 31.5573 17.4731C28.211 17.7871 25.1133 17.0529 22.1297 16.1436C20.756 15.7281 19.7139 14.8626 19.2443 13.6693C18.7732 12.4614 18.3036 11.2681 17.7965 10.0788C17.6165 9.63917 17.327 9.24087 17.0234 8.71081C14.5517 9.39001 12.5228 10.4807 10.5675 11.5488C6.37207 13.8634 2.30655 16.3269 -1.82156 18.738C-2.12502 18.9185 -2.44726 19.1011 -2.68814 19.3342C-6.40307 22.5892 -10.9582 25.0904 -15.0941 27.9612C-16.0655 28.6426 -16.9008 29.3539 -17.5451 30.2519C-18.3553 31.375 -19.3235 32.4409 -20.8815 33.3184C-21.2398 32.9866 -21.6998 32.7694 -21.8094 32.4554C-23.3528 27.9721 -22.9494 26.9518 -18.3694 23.6189C-16.766 22.4553 -15.0798 21.3569 -13.4561 20.2059C-12.5035 19.5265 -11.5524 18.8325 -10.7218 18.0774C-9.26716 16.7668 -7.42913 15.8446 -5.80076 14.7375C-1.34424 11.6695 3.84616 9.42602 8.1728 6.20908C10.6865 4.32621 13.8104 2.82215 17.1284 1.71182Z" fill="black" fill-opacity="0.24"/>
</svg>
