<svg width="24" height="25" viewBox="0 0 24 25" fill="none" xmlns="http://www.w3.org/2000/svg">
<path d="M14.8306 17.7852H9.16932L9.55133 18.7995C9.89789 19.7197 9.77575 20.8098 9.30703 21.5352H7C6.44772 21.5352 6 21.9829 6 22.5352C6 23.0875 6.44772 23.5352 7 23.5352H17C17.5523 23.5352 18 23.0875 18 22.5352C18 21.9829 17.5523 21.5352 17 21.5352H14.6929C14.2242 20.8098 14.1021 19.7197 14.4486 18.7995L14.8306 17.7852Z" fill="#E8E8E8"/>
<path fill-rule="evenodd" clip-rule="evenodd" d="M1 4.53516C1 2.87831 2.34315 1.53516 4 1.53516H20C21.6569 1.53516 23 2.87831 23 4.53516V16.5352C23 18.1921 21.6569 19.5352 20 19.5352H4C2.34315 19.5352 1 18.1921 1 16.5352V4.53516ZM4 3.53516C3.44772 3.53516 3 3.98288 3 4.53516V16.5352C3 17.0875 3.44772 17.5352 4 17.5352H20C20.5523 17.5352 21 17.0875 21 16.5352V4.53516C21 3.98288 20.5523 3.53516 20 3.53516H4Z" fill="#E8E8E8"/>
<path fill-rule="evenodd" clip-rule="evenodd" d="M12 5.53516C12.5523 5.53516 13 5.98288 13 6.53516V6.67665C13.7704 6.90008 14.4496 7.38496 14.7908 8.10886C15.0262 8.60845 14.8121 9.2043 14.3125 9.43974C13.8129 9.67518 13.2171 9.46105 12.9816 8.96146C12.9168 8.82399 12.6009 8.53516 12 8.53516C11.6432 8.53516 11.3586 8.64489 11.1858 8.7745C11.0133 8.90388 11 9.00627 11 9.03516C11 9.06405 11.0133 9.16644 11.1858 9.29582C11.3586 9.42543 11.6432 9.53516 12 9.53516C12.7477 9.53516 13.4632 9.76121 14.0142 10.1745C14.5656 10.5881 15 11.2357 15 12.0352C15 12.8347 14.5656 13.4823 14.0142 13.8959C13.717 14.1187 13.3721 14.2872 13 14.395V14.5352C13 15.0875 12.5523 15.5352 12 15.5352C11.4477 15.5352 11 15.0875 11 14.5352V14.3937C10.2296 14.1703 9.55037 13.6854 9.20922 12.9615C8.97378 12.4619 9.18792 11.8661 9.68751 11.6306C10.1871 11.3952 10.7829 11.6093 11.0184 12.1089C11.0832 12.2464 11.3991 12.5352 12 12.5352C12.3568 12.5352 12.6414 12.4255 12.8142 12.2959C12.9867 12.1665 13 12.0641 13 12.0352C13 12.0063 12.9867 11.9039 12.8142 11.7745C12.6414 11.6449 12.3568 11.5352 12 11.5352C11.2523 11.5352 10.5368 11.3091 9.98579 10.8959C9.43443 10.4823 9 9.8347 9 9.03516C9 8.23562 9.43443 7.58802 9.98579 7.1745C10.283 6.95162 10.6279 6.7832 11 6.67531V6.53516C11 5.98288 11.4477 5.53516 12 5.53516Z" fill="#E8E8E8"/>
</svg>
