<svg width="178" height="158" viewBox="0 0 178 158" fill="none" xmlns="http://www.w3.org/2000/svg">
<g clip-path="url(#clip0_546_9991)">
<path d="M88.999 157.462C132.452 157.462 167.678 122.236 167.678 78.7832C167.678 35.3302 132.452 0.104492 88.999 0.104492C45.546 0.104492 10.3203 35.3302 10.3203 78.7832C10.3203 122.236 45.546 157.462 88.999 157.462Z" fill="white"/>
<path d="M88.999 157.462C132.452 157.462 167.678 122.236 167.678 78.7832C167.678 35.3302 132.452 0.104492 88.999 0.104492C45.546 0.104492 10.3203 35.3302 10.3203 78.7832C10.3203 122.236 45.546 157.462 88.999 157.462Z" fill="#F3F4F6"/>
<path d="M37.865 105.507L0.238281 105.393L0.393096 54.2773L26.4111 54.3562L37.9846 66.0001L37.865 105.507Z" fill="white"/>
<path opacity="0.3" d="M26.4102 54.3555L26.375 65.9642L37.9837 65.9994L26.4102 54.3555Z" fill="#9CA3AF"/>
<path d="M38.2227 65.9852C38.2213 65.9642 38.2172 65.9435 38.2105 65.9236C38.2078 65.9159 38.2059 65.9085 38.2026 65.9008C38.1914 65.8748 38.1755 65.851 38.1558 65.8306L26.5824 54.1867C26.562 54.1666 26.5382 54.1504 26.5121 54.1387C26.5049 54.1356 26.4974 54.1329 26.4899 54.1306C26.4698 54.1236 26.4488 54.1194 26.4275 54.1181C26.4225 54.1181 26.418 54.115 26.4129 54.115L0.395185 54.0371C0.331625 54.0371 0.270669 54.0624 0.225726 54.1073C0.180783 54.1522 0.155534 54.2132 0.155534 54.2768L0 105.391C0 105.455 0.0252489 105.516 0.0701922 105.561C0.115136 105.606 0.176092 105.631 0.239651 105.631L37.8649 105.746C37.9285 105.746 37.9894 105.72 38.0344 105.676C38.0793 105.631 38.1045 105.57 38.1045 105.506L38.2244 65.9995C38.2256 65.995 38.2229 65.9904 38.2227 65.9852ZM26.6492 54.9351L31.9934 60.3097L37.4081 65.7575L26.6176 65.7247L26.6492 54.9351ZM0.479302 105.153L0.632679 54.5171L26.1711 54.5945L26.1368 65.9636C26.1368 66.0272 26.1621 66.0881 26.207 66.1331C26.252 66.178 26.3129 66.2032 26.3765 66.2032L37.7456 66.2378L37.6274 105.265L0.479302 105.153Z" fill="#262626"/>
<path d="M114.572 103.461L63.2617 103.306L63.4729 33.6016L98.9525 33.7092L114.735 49.5875L114.572 103.461Z" fill="white"/>
<path opacity="0.3" d="M98.9542 33.71L98.9062 49.5404L114.737 49.5883L98.9542 33.71Z" fill="#9CA3AF"/>
<path d="M114.972 49.5732C114.971 49.5524 114.967 49.5317 114.96 49.5119C114.958 49.504 114.956 49.4965 114.952 49.4879C114.941 49.4619 114.925 49.4381 114.906 49.4177L99.1233 33.5394C99.1029 33.5193 99.0792 33.5031 99.0531 33.4914C99.0457 33.4881 99.0385 33.4862 99.0308 33.4835C99.0107 33.4766 98.9897 33.4723 98.9685 33.4708C98.9635 33.4708 98.9589 33.468 98.9539 33.468L63.4742 33.3604C63.4107 33.3604 63.3497 33.3856 63.3048 33.4305C63.2598 33.4755 63.2346 33.5364 63.2346 33.6L63.0234 103.304C63.0234 103.368 63.0487 103.429 63.0936 103.473C63.1386 103.518 63.1995 103.544 63.2631 103.544L114.572 103.699C114.636 103.699 114.697 103.674 114.742 103.629C114.787 103.584 114.812 103.523 114.812 103.46L114.975 49.5859C114.975 49.5831 114.973 49.5785 114.972 49.5732ZM99.1906 34.2885L114.157 49.3463L99.1451 49.3008L99.1906 34.2885ZM63.5027 103.067L63.7124 33.842L98.7128 33.9482L98.6648 49.539C98.6648 49.6025 98.6901 49.6635 98.735 49.7084C98.78 49.7534 98.8409 49.7786 98.9045 49.7786L114.495 49.8265L114.333 103.221L63.5027 103.067Z" fill="#262626"/>
<path d="M177.638 105.508L140.012 105.394L140.167 54.2783L166.185 54.3572L177.758 66.0011L177.638 105.508Z" fill="white"/>
<path opacity="0.3" d="M166.184 54.3555L166.148 65.9642L177.757 65.9994L166.184 54.3555Z" fill="#9CA3AF"/>
<path d="M177.995 65.9861C177.994 65.9652 177.99 65.9444 177.983 65.9245C177.981 65.9169 177.979 65.9094 177.975 65.9018C177.964 65.8758 177.948 65.852 177.929 65.8315L166.355 54.1876C166.335 54.1676 166.311 54.1513 166.285 54.1397C166.278 54.1363 166.27 54.1342 166.263 54.1315C166.243 54.1245 166.222 54.1203 166.201 54.1191C166.195 54.1191 166.191 54.116 166.186 54.116L140.168 54.0371C140.104 54.0371 140.043 54.0624 139.998 54.1073C139.954 54.1522 139.928 54.2132 139.928 54.2768L139.773 105.392C139.773 105.456 139.799 105.516 139.844 105.561C139.889 105.606 139.95 105.632 140.013 105.632L177.64 105.746C177.703 105.746 177.764 105.72 177.809 105.676C177.854 105.631 177.879 105.57 177.879 105.506L177.999 65.9995C177.998 65.9959 177.996 65.9914 177.995 65.9861ZM166.423 54.936L171.765 60.3107L177.181 65.7585L166.39 65.7256L166.423 54.936ZM140.253 105.154L140.406 54.5181L165.945 54.5955L165.911 65.9645C165.911 66.0281 165.936 66.0891 165.981 66.134C166.026 66.179 166.087 66.2042 166.15 66.2042L177.519 66.2387L177.401 105.266L140.253 105.154Z" fill="#262626"/>
<path d="M76.1896 74.2209C78.1733 74.2209 79.7814 72.6127 79.7814 70.629C79.7814 68.6452 78.1733 67.0371 76.1896 67.0371C74.2058 67.0371 72.5977 68.6452 72.5977 70.629C72.5977 72.6127 74.2058 74.2209 76.1896 74.2209Z" fill="#292A2E"/>
<path d="M100.818 74.2209C102.802 74.2209 104.41 72.6127 104.41 70.629C104.41 68.6452 102.802 67.0371 100.818 67.0371C98.8347 67.0371 97.2266 68.6452 97.2266 70.629C97.2266 72.6127 98.8347 74.2209 100.818 74.2209Z" fill="#292A2E"/>
<path d="M93.32 80.5633H83.6889C83.6253 80.5633 83.5644 80.538 83.5194 80.4931C83.4745 80.4482 83.4492 80.3872 83.4492 80.3236C83.4492 80.2601 83.4745 80.1991 83.5194 80.1542C83.5644 80.1092 83.6253 80.084 83.6889 80.084H93.32C93.3835 80.084 93.4445 80.1092 93.4894 80.1542C93.5344 80.1991 93.5596 80.2601 93.5596 80.3236C93.5596 80.3872 93.5344 80.4482 93.4894 80.4931C93.4445 80.538 93.3835 80.5633 93.32 80.5633Z" fill="#262626"/>
<path d="M72.4854 80.9031C74.255 80.9031 75.6895 80.1481 75.6895 79.2167C75.6895 78.2853 74.255 77.5303 72.4854 77.5303C70.7158 77.5303 69.2812 78.2853 69.2812 79.2167C69.2812 80.1481 70.7158 80.9031 72.4854 80.9031Z" fill="white"/>
<path d="M104.528 80.9031C106.298 80.9031 107.732 80.1481 107.732 79.2167C107.732 78.2853 106.298 77.5303 104.528 77.5303C102.759 77.5303 101.324 78.2853 101.324 79.2167C101.324 80.1481 102.759 80.9031 104.528 80.9031Z" fill="white"/>
<g opacity="0.4">
<path d="M72.4854 80.9031C74.255 80.9031 75.6895 80.1481 75.6895 79.2167C75.6895 78.2853 74.255 77.5303 72.4854 77.5303C70.7158 77.5303 69.2812 78.2853 69.2812 79.2167C69.2812 80.1481 70.7158 80.9031 72.4854 80.9031Z" fill="#9CA3AF"/>
<path d="M104.528 80.9031C106.298 80.9031 107.732 80.1481 107.732 79.2167C107.732 78.2853 106.298 77.5303 104.528 77.5303C102.759 77.5303 101.324 78.2853 101.324 79.2167C101.324 80.1481 102.759 80.9031 104.528 80.9031Z" fill="#9CA3AF"/>
</g>
<path d="M114.816 50.1577C108.7 43.1358 100.045 38.8308 90.7555 38.1898C81.4656 37.5488 72.3015 40.6242 65.279 46.7395C53.5466 56.9575 49.9413 73.9455 56.5132 88.0554C57.8328 90.8827 59.5248 93.5207 61.5442 95.8992L61.9756 96.4104L29.8163 130.539C29.2282 131.173 28.9144 132.013 28.9432 132.876C28.9721 133.74 29.3413 134.557 29.9703 135.15C30.5993 135.743 31.4371 136.063 32.3011 136.04C33.165 136.017 33.9849 135.654 34.582 135.029L66.7334 100.906L67.2705 101.308C74.2087 106.512 82.8275 108.964 91.4662 108.192C100.105 107.419 108.152 103.477 114.057 97.1247C119.962 90.7722 123.307 82.459 123.447 73.787C123.588 65.1151 120.514 56.698 114.817 50.1577H114.816ZM116.832 75.184C116.335 82.3945 113.122 89.1482 107.842 94.084C102.562 99.0199 95.608 101.771 88.3804 101.783C87.713 101.783 87.0434 101.759 86.3716 101.711C81.6801 101.392 77.1396 99.921 73.1529 97.4274C69.1661 94.9338 65.8563 91.4949 63.517 87.4158C61.1776 83.3366 59.881 78.7432 59.7421 74.0429C59.6032 69.3426 60.6264 64.6807 62.7208 60.4705C64.8152 56.2603 67.9162 52.6321 71.7488 49.9074C75.5813 47.1828 80.027 45.446 84.6916 44.8511C89.3562 44.2562 94.0954 44.8215 98.4892 46.4969C102.883 48.1724 106.795 50.9061 109.879 54.4558C112.35 57.2802 114.237 60.5663 115.43 64.1241C116.624 67.6819 117.1 71.4409 116.832 75.184Z" fill="#6B7280"/>
</g>
<defs>
<clipPath id="clip0_546_9991">
<rect width="178" height="157.379" fill="white" transform="translate(0 0.09375)"/>
</clipPath>
</defs>
</svg>
