<svg width="225" height="48" viewBox="0 0 225 48" fill="none" xmlns="http://www.w3.org/2000/svg">
<path d="M67.2791 22.807C67.2791 32.2538 59.621 39.9119 50.1742 39.9119C40.7274 39.9119 33.0693 32.2538 33.0693 22.807C33.0693 13.3603 40.7274 5.70215 50.1742 5.70215C59.621 5.70215 67.2791 13.3603 67.2791 22.807ZM36.617 22.807C36.617 30.2945 42.6868 36.3642 50.1742 36.3642C57.6616 36.3642 63.7314 30.2945 63.7314 22.807C63.7314 15.3196 57.6616 9.24982 50.1742 9.24982C42.6868 9.24982 36.617 15.3196 36.617 22.807Z" fill="#242424"/>
<path d="M61.6396 36.3574L64.865 33.1321L69.0069 37.274C69.8975 38.1647 69.8975 39.6087 69.0069 40.4993C68.1162 41.39 66.6722 41.39 65.7816 40.4993L61.6396 36.3574Z" fill="#242424"/>
<path fill-rule="evenodd" clip-rule="evenodd" d="M50.7215 16.5381C50.259 16.1527 49.5871 16.1527 49.1247 16.5381L47.5915 17.8157H45.2905C44.6017 17.8157 44.0433 18.3742 44.0433 19.063V21.3639L42.7656 22.8971C42.3802 23.3596 42.3802 24.0315 42.7656 24.494L44.0433 26.0272L44.0433 28.3281C44.0433 29.017 44.6017 29.5754 45.2905 29.5754H47.5915L49.1247 30.853C49.5871 31.2385 50.259 31.2385 50.7215 30.853L52.2547 29.5754H54.5557C55.2445 29.5754 55.8029 29.017 55.8029 28.3281V26.0272L57.0806 24.494C57.466 24.0315 57.466 23.3596 57.0806 22.8971L55.8029 21.3639V19.063C55.8029 18.3742 55.2445 17.8157 54.5557 17.8157H52.2547L50.7215 16.5381ZM52.3905 22.5459C52.7396 22.3641 52.8752 21.9337 52.6934 21.5846C52.5116 21.2354 52.0811 21.0998 51.732 21.2817C50.7143 21.8117 49.884 22.8264 49.3353 23.6266C49.2879 23.6958 49.242 23.7643 49.1978 23.8314C49.0981 23.9829 49.007 24.1283 48.9251 24.2637C48.8639 24.2119 48.8045 24.1642 48.7481 24.1205C48.73 24.1066 48.7122 24.093 48.6948 24.0799C48.5414 23.9644 48.4033 23.8733 48.3026 23.8104C48.252 23.7789 48.2102 23.7541 48.1799 23.7365C48.1647 23.7277 48.1524 23.7206 48.1431 23.7155L48.1317 23.7092L48.1278 23.707L48.1264 23.7062L48.1252 23.7056C47.7793 23.5177 47.3466 23.6458 47.1588 23.9917C46.9709 24.3375 47.0991 24.7702 47.4449 24.9582L47.4463 24.959L47.4653 24.9699C47.4834 24.9803 47.5118 24.9972 47.5481 25.0198C47.621 25.0653 47.7236 25.1329 47.8374 25.2186C48.0751 25.3976 48.3174 25.6224 48.4643 25.8563C48.6024 26.0762 48.8491 26.2036 49.1083 26.1889C49.3673 26.1742 49.598 26.0196 49.7104 25.7857L49.7122 25.782L49.7213 25.7637C49.7297 25.7467 49.7428 25.7206 49.7604 25.6863C49.7956 25.6176 49.8487 25.5167 49.918 25.392C50.057 25.1419 50.2592 24.7998 50.5109 24.4326C51.0314 23.6737 51.6977 22.9067 52.3905 22.5459Z" fill="white"/>
<rect x="8.55258" y="14.2538" width="17.1049" height="17.1049" stroke="white" stroke-width="1.14033" stroke-linecap="round" stroke-linejoin="round" stroke-dasharray="9.12 9.12"/>
<rect x="10.2627" y="22.8066" width="13.6839" height="1.14033" rx="0.570163" fill="white"/>
<path d="M34.2098 22.807C34.2098 32.2538 26.5516 39.9119 17.1049 39.9119C7.65811 39.9119 0 32.2538 0 22.807C0 13.3603 7.65811 5.70215 17.1049 5.70215C26.5516 5.70215 34.2098 13.3603 34.2098 22.807ZM3.54767 22.807C3.54767 30.2945 9.61744 36.3642 17.1049 36.3642C24.5923 36.3642 30.6621 30.2945 30.6621 22.807C30.6621 15.3196 24.5923 9.24982 17.1049 9.24982C9.61744 9.24982 3.54767 15.3196 3.54767 22.807Z" fill="#242424"/>
<path d="M89.3648 36L79.8773 10.4567H83.8183L91.5542 32.205L99.3632 10.4567H103.231L93.7437 36H89.3648ZM110.975 36.4379C109.223 36.4379 107.666 36.0365 106.304 35.2337C104.942 34.4309 103.871 33.3119 103.093 31.8766C102.339 30.4413 101.962 28.7749 101.962 26.8774C101.962 24.9312 102.339 23.2405 103.093 21.8052C103.871 20.3456 104.942 19.2144 106.304 18.4116C107.666 17.5845 109.248 17.171 111.048 17.171C112.848 17.171 114.393 17.5723 115.682 18.3751C116.971 19.1779 117.969 20.2483 118.674 21.5863C119.38 22.8999 119.733 24.3596 119.733 25.9651C119.733 26.2084 119.72 26.476 119.696 26.7679C119.696 27.0355 119.684 27.3396 119.66 27.6802H104.625V25.0894H116.083C116.01 23.5568 115.5 22.3648 114.551 21.5133C113.602 20.6375 112.422 20.1997 111.011 20.1997C110.014 20.1997 109.102 20.4308 108.275 20.893C107.447 21.3309 106.778 21.9877 106.268 22.8635C105.781 23.7149 105.538 24.7974 105.538 26.1111V27.1328C105.538 28.4951 105.781 29.6507 106.268 30.5994C106.778 31.5238 107.447 32.2293 108.275 32.7159C109.102 33.1781 110.002 33.4092 110.975 33.4092C112.143 33.4092 113.103 33.1537 113.858 32.6429C114.612 32.132 115.171 31.4387 115.536 30.5629H119.185C118.869 31.682 118.334 32.6915 117.58 33.5916C116.825 34.4674 115.889 35.1607 114.77 35.6716C113.675 36.1825 112.41 36.4379 110.975 36.4379ZM122.327 36V17.6088H125.611L125.94 21.0754C126.353 20.2483 126.888 19.555 127.545 18.9955C128.202 18.4116 128.968 17.9616 129.844 17.6453C130.744 17.3291 131.766 17.171 132.909 17.171V21.0389H131.596C130.841 21.0389 130.124 21.1362 129.443 21.3309C128.762 21.5011 128.153 21.8052 127.618 22.2431C127.107 22.681 126.706 23.277 126.414 24.0311C126.122 24.7853 125.976 25.7219 125.976 26.8409V36H122.327ZM136.917 44.0279L141.406 33.9565H140.347L133.086 17.6088H137.027L142.792 30.9643L148.594 17.6088H152.426L140.749 44.0279H136.917ZM155.173 36V15.1275C155.173 13.8625 155.38 12.8286 155.793 12.0258C156.231 11.223 156.864 10.6392 157.691 10.2743C158.518 9.90936 159.515 9.72691 160.683 9.72691H162.836V12.8286H161.267C160.391 12.8286 159.759 13.011 159.369 13.376C159.004 13.7165 158.822 14.3247 158.822 15.2005V36H155.173ZM152.473 20.7105V17.6088H163.237V20.7105H152.473ZM170.867 36.4379C169.358 36.4379 168.106 36.1825 167.108 35.6716C166.111 35.1607 165.369 34.4796 164.882 33.6281C164.396 32.7524 164.152 31.8158 164.152 30.8184C164.152 29.602 164.469 28.5681 165.101 27.7167C165.734 26.8409 166.634 26.1719 167.801 25.7097C168.969 25.2475 170.368 25.0164 171.998 25.0164H176.778C176.778 23.946 176.62 23.0581 176.304 22.3526C175.988 21.6471 175.513 21.1241 174.881 20.7835C174.272 20.4186 173.494 20.2361 172.545 20.2361C171.451 20.2361 170.514 20.5037 169.735 21.0389C168.957 21.5498 168.47 22.3161 168.276 23.3378H164.627C164.773 22.0485 165.211 20.9538 165.94 20.0537C166.695 19.1293 167.656 18.4238 168.823 17.9372C169.991 17.4264 171.232 17.171 172.545 17.171C174.272 17.171 175.72 17.475 176.888 18.0832C178.055 18.6914 178.931 19.555 179.515 20.674C180.123 21.7687 180.427 23.0824 180.427 24.615V36H177.253L176.961 32.8983C176.693 33.3849 176.377 33.8471 176.012 34.285C175.647 34.7228 175.209 35.0999 174.698 35.4162C174.212 35.7324 173.64 35.9757 172.983 36.146C172.351 36.3406 171.645 36.4379 170.867 36.4379ZM171.56 33.4822C172.338 33.4822 173.044 33.324 173.676 33.0078C174.309 32.6915 174.844 32.2658 175.282 31.7306C175.744 31.1711 176.085 30.5508 176.304 29.8696C176.547 29.1641 176.681 28.4465 176.705 27.7167V27.6072H172.363C171.317 27.6072 170.465 27.741 169.808 28.0086C169.176 28.2519 168.714 28.5924 168.422 29.0303C168.13 29.4682 167.984 29.9791 167.984 30.5629C167.984 31.1711 168.118 31.6941 168.385 32.132C168.677 32.5456 169.091 32.874 169.626 33.1173C170.161 33.3605 170.806 33.4822 171.56 33.4822ZM183.881 36V17.6088H187.53V36H183.881ZM185.742 14.1422C185.036 14.1422 184.452 13.9233 183.99 13.4854C183.552 13.0475 183.333 12.488 183.333 11.8069C183.333 11.15 183.552 10.6148 183.99 10.2013C184.452 9.7634 185.036 9.54446 185.742 9.54446C186.423 9.54446 186.994 9.7634 187.457 10.2013C187.919 10.6148 188.15 11.15 188.15 11.8069C188.15 12.488 187.919 13.0475 187.457 13.4854C186.994 13.9233 186.423 14.1422 185.742 14.1422ZM192.748 36.1825C192.042 36.1825 191.458 35.9635 190.996 35.5256C190.558 35.0634 190.339 34.5161 190.339 33.8836C190.339 33.2267 190.558 32.6794 190.996 32.2415C191.458 31.7793 192.042 31.5482 192.748 31.5482C193.453 31.5482 194.025 31.7793 194.463 32.2415C194.901 32.6794 195.12 33.2267 195.12 33.8836C195.12 34.5161 194.901 35.0634 194.463 35.5256C194.025 35.9635 193.453 36.1825 192.748 36.1825ZM197.924 36V17.6088H201.573V36H197.924ZM199.785 14.1422C199.079 14.1422 198.495 13.9233 198.033 13.4854C197.595 13.0475 197.376 12.488 197.376 11.8069C197.376 11.15 197.595 10.6148 198.033 10.2013C198.495 9.7634 199.079 9.54446 199.785 9.54446C200.466 9.54446 201.038 9.7634 201.5 10.2013C201.962 10.6148 202.193 11.15 202.193 11.8069C202.193 12.488 201.962 13.0475 201.5 13.4854C201.038 13.9233 200.466 14.1422 199.785 14.1422ZM213.724 36.4379C211.997 36.4379 210.44 36.0365 209.053 35.2337C207.691 34.4309 206.608 33.3119 205.806 31.8766C205.027 30.417 204.638 28.7384 204.638 26.8409C204.638 24.8948 205.039 23.204 205.842 21.7687C206.645 20.3091 207.74 19.1779 209.126 18.3751C210.513 17.5723 212.07 17.171 213.797 17.171C215.549 17.171 217.106 17.5723 218.468 18.3751C219.83 19.1779 220.901 20.297 221.679 21.7323C222.482 23.1675 222.883 24.8583 222.883 26.8044C222.883 28.7506 222.482 30.4413 221.679 31.8766C220.901 33.3119 219.818 34.4309 218.431 35.2337C217.045 36.0365 215.476 36.4379 213.724 36.4379ZM213.724 33.2997C214.721 33.2997 215.622 33.0564 216.424 32.5699C217.251 32.0834 217.908 31.3657 218.395 30.417C218.906 29.4439 219.161 28.2397 219.161 26.8044C219.161 25.3691 218.918 24.1771 218.431 23.2284C217.945 22.2553 217.288 21.5255 216.461 21.0389C215.658 20.5524 214.77 20.3091 213.797 20.3091C212.824 20.3091 211.924 20.5524 211.097 21.0389C210.27 21.5255 209.601 22.2553 209.09 23.2284C208.603 24.1771 208.36 25.3691 208.36 26.8044C208.36 28.2397 208.603 29.4439 209.09 30.417C209.601 31.3657 210.258 32.0834 211.06 32.5699C211.887 33.0564 212.775 33.2997 213.724 33.2997Z" fill="white"/>
</svg>
