<svg width="195" height="42" viewBox="0 0 195 42" fill="none" xmlns="http://www.w3.org/2000/svg">
<path d="M60.3308 20.1074C60.3308 28.6355 53.464 35.5488 44.9935 35.5488C36.523 35.5488 29.6562 28.6355 29.6562 20.1074C29.6562 11.5794 36.523 4.66602 44.9935 4.66602C53.464 4.66602 60.3308 11.5794 60.3308 20.1074ZM32.8373 20.1074C32.8373 26.8667 38.2798 32.3462 44.9935 32.3462C51.7072 32.3462 57.1497 26.8667 57.1497 20.1074C57.1497 13.3482 51.7072 7.86868 44.9935 7.86868C38.2798 7.86868 32.8373 13.3482 32.8373 20.1074Z" fill="#1E90FF"/>
<path d="M55.2695 32.3398L58.1616 29.4282L61.8754 33.1673C62.6741 33.9713 62.6741 35.2749 61.8754 36.079C61.0768 36.883 59.782 36.883 58.9834 36.079L55.2695 32.3398Z" fill="#1E90FF"/>
<path fill-rule="evenodd" clip-rule="evenodd" d="M45.4789 14.447C45.0641 14.099 44.4617 14.099 44.047 14.447L42.6723 15.6004H40.6091C39.9915 15.6004 39.4908 16.1045 39.4908 16.7263V18.8035L38.3451 20.1876C37.9995 20.6051 37.9995 21.2116 38.3451 21.6292L39.4908 23.0132L39.4908 25.0904C39.4908 25.7123 39.9915 26.2164 40.6091 26.2164H42.6723L44.047 27.3698C44.4617 27.7177 45.0641 27.7177 45.4789 27.3698L46.8536 26.2164H48.9168C49.5344 26.2164 50.0351 25.7123 50.0351 25.0904V23.0132L51.1808 21.6292C51.5264 21.2116 51.5264 20.6051 51.1808 20.1876L50.0351 18.8035V16.7263C50.0351 16.1045 49.5344 15.6004 48.9168 15.6004H46.8536L45.4789 14.447ZM46.9753 19.8705C47.2884 19.7064 47.41 19.3178 47.2469 19.0027C47.0839 18.6875 46.6979 18.5651 46.3849 18.7293C45.4724 19.2078 44.7279 20.1238 44.2359 20.8461C44.1934 20.9086 44.1522 20.9704 44.1126 21.031C44.0232 21.1678 43.9415 21.2991 43.8681 21.4212C43.8133 21.3745 43.76 21.3314 43.7093 21.292C43.6931 21.2794 43.6772 21.2672 43.6616 21.2554C43.524 21.1511 43.4002 21.0689 43.3099 21.0121C43.2645 20.9836 43.227 20.9612 43.1999 20.9453C43.1863 20.9374 43.1752 20.931 43.1669 20.9264L43.1567 20.9207L43.1532 20.9187L43.1519 20.918L43.1508 20.9175C42.8407 20.7479 42.4527 20.8635 42.2843 21.1757C42.1158 21.4879 42.2308 21.8786 42.5408 22.0482L42.5421 22.0489L42.5592 22.0588C42.5754 22.0682 42.6009 22.0834 42.6334 22.1038C42.6988 22.1449 42.7907 22.206 42.8928 22.2833C43.106 22.4449 43.3232 22.6478 43.4549 22.859C43.5787 23.0575 43.7999 23.1725 44.0323 23.1592C44.2646 23.146 44.4715 23.0064 44.5723 22.7953L44.5739 22.7919L44.582 22.7754C44.5895 22.7601 44.6013 22.7365 44.6171 22.7055C44.6486 22.6436 44.6962 22.5524 44.7584 22.4399C44.883 22.2141 45.0643 21.9053 45.29 21.5738C45.7567 20.8887 46.3541 20.1963 46.9753 19.8705Z" fill="white"/>
<rect x="7.67096" y="12.3853" width="15.3303" height="15.4414" stroke="white" stroke-width="1.02943" stroke-linecap="round" stroke-linejoin="round" stroke-dasharray="8.24 8.24"/>
<rect x="9.19922" y="20.1064" width="12.2698" height="1.02943" rx="0.514714" fill="white"/>
<path d="M30.6745 20.1074C30.6745 28.6355 23.8078 35.5488 15.3373 35.5488C6.86672 35.5488 0 28.6355 0 20.1074C0 11.5794 6.86672 4.66602 15.3373 4.66602C23.8078 4.66602 30.6745 11.5794 30.6745 20.1074ZM3.18106 20.1074C3.18106 26.8667 8.62357 32.3462 15.3373 32.3462C22.0509 32.3462 27.4935 26.8667 27.4935 20.1074C27.4935 13.3482 22.0509 7.86868 15.3373 7.86868C8.62357 7.86868 3.18106 13.3482 3.18106 20.1074Z" fill="#1E90FF"/>
<path d="M77.6162 31.5L69.4511 9.517H72.8428L79.5005 28.234L86.221 9.517H89.5499L81.3848 31.5H77.6162ZM96.2142 31.8769C94.7068 31.8769 93.3669 31.5314 92.1945 30.8405C91.022 30.1496 90.1008 29.1866 89.4309 27.9513C88.7819 26.7161 88.4573 25.282 88.4573 23.6489C88.4573 21.974 88.7819 20.519 89.4309 19.2837C90.1008 18.0276 91.022 17.054 92.1945 16.3631C93.3669 15.6513 94.7277 15.2954 96.277 15.2954C97.8263 15.2954 99.1557 15.6408 100.265 16.3317C101.375 17.0226 102.233 17.9438 102.841 19.0953C103.448 20.2259 103.751 21.482 103.751 22.8638C103.751 23.0732 103.741 23.3035 103.72 23.5547C103.72 23.785 103.709 24.0467 103.688 24.3398H90.7499V22.1101H100.611C100.548 20.7911 100.108 19.7653 99.2918 19.0325C98.4753 18.2788 97.4599 17.9019 96.2456 17.9019C95.3872 17.9019 94.6021 18.1008 93.8903 18.4986C93.1785 18.8755 92.6027 19.4408 92.1631 20.1945C91.7443 20.9272 91.535 21.8589 91.535 22.9894V23.8688C91.535 25.0412 91.7443 26.0357 92.1631 26.8522C92.6027 27.6477 93.1785 28.2549 93.8903 28.6736C94.6021 29.0714 95.3768 29.2703 96.2142 29.2703C97.2191 29.2703 98.0461 29.0505 98.6951 28.6108C99.3442 28.1711 99.8257 27.5745 100.14 26.8208H103.28C103.008 27.7838 102.547 28.6527 101.898 29.4273C101.249 30.181 100.443 30.7777 99.4803 31.2174C98.5381 31.657 97.4494 31.8769 96.2142 31.8769ZM105.984 31.5V15.6722H108.811L109.093 18.6556C109.449 17.9438 109.91 17.3471 110.475 16.8656C111.04 16.3631 111.7 15.9758 112.453 15.7036C113.228 15.4315 114.107 15.2954 115.091 15.2954V18.6242H113.961C113.312 18.6242 112.694 18.708 112.108 18.8755C111.522 19.022 110.998 19.2837 110.538 19.6606C110.098 20.0374 109.753 20.5504 109.501 21.1994C109.25 21.8484 109.125 22.6545 109.125 23.6175V31.5H105.984ZM118.541 38.4089L122.403 29.7414H121.493L115.243 15.6722H118.635L123.597 27.1662L128.59 15.6722H131.888L121.838 38.4089H118.541ZM134.252 31.5V13.5367C134.252 12.4481 134.43 11.5583 134.786 10.8674C135.163 10.1765 135.707 9.67402 136.419 9.35998C137.131 9.04594 137.989 8.88891 138.994 8.88891H140.847V11.5583H139.496C138.743 11.5583 138.198 11.7153 137.863 12.0293C137.549 12.3225 137.392 12.8459 137.392 13.5996V31.5H134.252ZM131.928 18.3416V15.6722H141.192V18.3416H131.928ZM147.758 31.8769C146.46 31.8769 145.382 31.657 144.524 31.2174C143.665 30.7777 143.027 30.1915 142.608 29.4587C142.189 28.705 141.98 27.899 141.98 27.0406C141.98 25.9938 142.252 25.104 142.796 24.3712C143.341 23.6175 144.115 23.0418 145.12 22.644C146.125 22.2462 147.329 22.0473 148.732 22.0473H152.846C152.846 21.1261 152.71 20.3619 152.437 19.7548C152.165 19.1476 151.757 18.6975 151.213 18.4044C150.689 18.0904 150.019 17.9333 149.203 17.9333C148.261 17.9333 147.455 18.1636 146.785 18.6242C146.115 19.0639 145.696 19.7234 145.529 20.6027H142.388C142.514 19.4931 142.891 18.551 143.519 17.7763C144.168 16.9808 144.995 16.3736 146 15.9549C147.005 15.5152 148.072 15.2954 149.203 15.2954C150.689 15.2954 151.935 15.5571 152.94 16.0805C153.945 16.6039 154.699 17.3471 155.201 18.3102C155.724 19.2523 155.986 20.3829 155.986 21.7019V31.5H153.254L153.003 28.8306C152.772 29.2494 152.5 29.6471 152.186 30.024C151.872 30.4009 151.495 30.7254 151.056 30.9975C150.637 31.2697 150.145 31.4791 149.58 31.6256C149.035 31.7931 148.428 31.8769 147.758 31.8769ZM148.355 29.3331C149.025 29.3331 149.632 29.197 150.176 28.9248C150.721 28.6527 151.181 28.2863 151.558 27.8257C151.956 27.3442 152.249 26.8103 152.437 26.2241C152.647 25.6169 152.762 24.9993 152.783 24.3712V24.277H149.046C148.146 24.277 147.413 24.3922 146.847 24.6225C146.303 24.8318 145.905 25.1249 145.654 25.5018C145.403 25.8786 145.277 26.3183 145.277 26.8208C145.277 27.3442 145.392 27.7943 145.623 28.1711C145.874 28.5271 146.23 28.8097 146.69 29.0191C147.151 29.2284 147.706 29.3331 148.355 29.3331ZM158.958 31.5V15.6722H162.099V31.5H158.958ZM160.56 12.6888C159.953 12.6888 159.45 12.5004 159.052 12.1236C158.676 11.7467 158.487 11.2652 158.487 10.679C158.487 10.1137 158.676 9.65309 159.052 9.29717C159.45 8.92032 159.953 8.73189 160.56 8.73189C161.146 8.73189 161.638 8.92032 162.036 9.29717C162.434 9.65309 162.633 10.1137 162.633 10.679C162.633 11.2652 162.434 11.7467 162.036 12.1236C161.638 12.5004 161.146 12.6888 160.56 12.6888ZM166.589 31.657C165.982 31.657 165.48 31.4686 165.082 31.0917C164.705 30.694 164.517 30.2229 164.517 29.6786C164.517 29.1133 164.705 28.6422 165.082 28.2654C165.48 27.8676 165.982 27.6687 166.589 27.6687C167.197 27.6687 167.689 27.8676 168.065 28.2654C168.442 28.6422 168.631 29.1133 168.631 29.6786C168.631 30.2229 168.442 30.694 168.065 31.0917C167.689 31.4686 167.197 31.657 166.589 31.657ZM171.044 31.5V15.6722H174.184V31.5H171.044ZM172.646 12.6888C172.038 12.6888 171.536 12.5004 171.138 12.1236C170.761 11.7467 170.573 11.2652 170.573 10.679C170.573 10.1137 170.761 9.65309 171.138 9.29717C171.536 8.92032 172.038 8.73189 172.646 8.73189C173.232 8.73189 173.724 8.92032 174.122 9.29717C174.519 9.65309 174.718 10.1137 174.718 10.679C174.718 11.2652 174.519 11.7467 174.122 12.1236C173.724 12.5004 173.232 12.6888 172.646 12.6888ZM184.642 31.8769C183.156 31.8769 181.816 31.5314 180.622 30.8405C179.45 30.1496 178.518 29.1866 177.827 27.9513C177.157 26.6951 176.822 25.2505 176.822 23.6175C176.822 21.9426 177.168 20.4876 177.859 19.2523C178.55 17.9962 179.492 17.0226 180.685 16.3317C181.878 15.6408 183.218 15.2954 184.705 15.2954C186.212 15.2954 187.552 15.6408 188.725 16.3317C189.897 17.0226 190.818 17.9857 191.488 19.2209C192.179 20.4562 192.525 21.9112 192.525 23.5861C192.525 25.261 192.179 26.7161 191.488 27.9513C190.818 29.1866 189.887 30.1496 188.693 30.8405C187.5 31.5314 186.149 31.8769 184.642 31.8769ZM184.642 29.1761C185.5 29.1761 186.275 28.9667 186.966 28.548C187.678 28.1293 188.243 27.5117 188.662 26.6951C189.101 25.8577 189.321 24.8214 189.321 23.5861C189.321 22.3509 189.112 21.325 188.693 20.5085C188.274 19.6711 187.709 19.043 186.997 18.6242C186.306 18.2055 185.542 17.9962 184.705 17.9962C183.867 17.9962 183.093 18.2055 182.381 18.6242C181.669 19.043 181.093 19.6711 180.654 20.5085C180.235 21.325 180.026 22.3509 180.026 23.5861C180.026 24.8214 180.235 25.8577 180.654 26.6951C181.093 27.5117 181.659 28.1293 182.35 28.548C183.061 28.9667 183.826 29.1761 184.642 29.1761Z" fill="white"/>
</svg>
