<svg xmlns="http://www.w3.org/2000/svg" width="25" height="25" viewBox="0 0 25 25" fill="none">
<path d="M4.13114 16.2172C4.51252 16.5827 4.47804 17.2496 4.0979 17.6163L11.8793 21.5669C11.884 21.5693 11.8894 21.5693 11.8941 21.5669L19.6755 17.6163C19.2954 17.2496 19.2609 16.5827 19.6423 16.2172C20.0237 15.8517 20.6809 15.8916 21.0611 16.2583C21.9964 17.1606 21.7594 18.6786 20.586 19.2743L12.8046 23.225C12.2301 23.5166 11.5433 23.5166 10.9688 23.225L3.18743 19.2743C2.01402 18.6786 1.77705 17.1602 2.71234 16.2579C3.09248 15.8912 3.74977 15.8517 4.13114 16.2172Z" fill="#E8E8E8"/>
<path d="M12.813 2.16375L20.5374 6.04675C22.0029 6.78346 22.0029 8.83297 20.5374 9.56969L12.813 13.4527C12.2316 13.7449 11.5416 13.7449 10.9602 13.4527L3.23587 9.56968C1.77034 8.83297 1.77034 6.78346 3.23587 6.04675L10.9602 2.16375C11.5416 1.87152 12.2316 1.87152 12.813 2.16375Z" fill="#E8E8E8"/>
<path d="M4.13114 11.2543C4.51252 11.6199 4.47804 12.2867 4.0979 12.6534L11.8793 16.604C11.884 16.6064 11.8894 16.6064 11.8941 16.604L19.6755 12.6534C19.2954 12.2867 19.2609 11.6198 19.6423 11.2543C20.0237 10.8888 20.6809 10.9287 21.0611 11.2954C21.9964 12.1977 21.7594 13.7157 20.586 14.3115L12.8046 18.2621C12.2301 18.5537 11.5433 18.5537 10.9688 18.2621L3.18743 14.3115C2.01402 13.7157 1.77705 12.1973 2.71234 11.295C3.09248 10.9283 3.74977 10.8888 4.13114 11.2543Z" fill="#E8E8E8"/>
</svg>