<svg width="64" height="64" viewBox="0 0 64 64" fill="none" xmlns="http://www.w3.org/2000/svg">
<rect width="64" height="64" rx="32" fill="#F5ECFF"/>
<path fill-rule="evenodd" clip-rule="evenodd" d="M21.6023 33.5996C22.486 33.5996 23.2023 34.3159 23.2023 35.1996V39.1996H27.2023C28.086 39.1996 28.8023 39.9159 28.8023 40.7996C28.8023 41.6833 28.086 42.3996 27.2023 42.3996H23.2023V46.3996C23.2023 47.2833 22.486 47.9996 21.6023 47.9996C20.7187 47.9996 20.0023 47.2833 20.0023 46.3996V42.3996H16.0023C15.1187 42.3996 14.4023 41.6833 14.4023 40.7996C14.4023 39.9159 15.1187 39.1996 16.0023 39.1996H20.0023V35.1996C20.0023 34.3159 20.7187 33.5996 21.6023 33.5996Z" fill="#871EFF"/>
<path fill-rule="evenodd" clip-rule="evenodd" d="M43.2023 22.4001V20.8C43.2023 18.149 41.0534 16 38.4023 16H19.2023C16.5514 16 14.4023 18.149 14.4023 20.8L14.4024 37.1328C14.8923 36.9187 15.4335 36.8 16.0023 36.8H17.6023V35.2C17.6023 32.9909 19.3932 31.2 21.6023 31.2C23.8115 31.2 25.6023 32.9909 25.6023 35.2V36.8H27.2023C29.4115 36.8 31.2023 38.5909 31.2023 40.8C31.2023 43.0091 29.4115 44.8 27.2023 44.8H25.6023V46.4C25.6023 46.969 25.4836 47.5101 25.2695 48H44.8023C47.4534 48 49.6023 45.851 49.6023 43.2V27.2001C49.6023 24.5491 47.4534 22.4001 44.8023 22.4001H43.2023ZM19.2023 19.2C18.3187 19.2 17.6023 19.9164 17.6023 20.8V22.4001H40.0023V20.8C40.0023 19.9164 39.286 19.2 38.4023 19.2H19.2023ZM40.8023 32C42.5697 32 44.0023 33.4326 44.0023 35.2C44.0023 36.9674 42.5697 38.4 40.8023 38.4C39.035 38.4 37.6023 36.9674 37.6023 35.2C37.6023 33.4326 39.035 32 40.8023 32Z" fill="#871EFF"/>
</svg>
