<svg xmlns="http://www.w3.org/2000/svg" width="25" height="25" viewBox="0 0 25 25" fill="none">
<path fill-rule="evenodd" clip-rule="evenodd" d="M8.79369 7.13232C7.46139 7.13232 6.32072 8.08734 6.08651 9.3989L4.19582 19.9868C3.94955 21.3659 5.00987 22.6323 6.41078 22.6323L17.8276 22.6323C19.2285 22.6323 20.2889 21.3659 20.0426 19.9868L18.1519 9.3989C17.9177 8.08734 16.777 7.13232 15.4447 7.13232L8.79369 7.13232ZM12.8711 11.3823C12.8711 10.9681 12.5353 10.6323 12.1211 10.6323C11.7069 10.6323 11.3711 10.9681 11.3711 11.3823L11.3711 16.5716L10.1514 15.352C9.85853 15.0591 9.38365 15.0591 9.09076 15.352C8.79787 15.6449 8.79787 16.1197 9.09076 16.4126L11.5908 18.9126C11.8837 19.2055 12.3585 19.2055 12.6514 18.9126L15.1514 16.4126C15.4443 16.1197 15.4443 15.6449 15.1514 15.352C14.8585 15.0591 14.3837 15.0591 14.0908 15.352L12.8711 16.5716L12.8711 11.3823Z" fill="#E8E8E8"/>
<path fill-rule="evenodd" clip-rule="evenodd" d="M1.12109 5.8982C1.12109 4.24004 2.4568 2.88232 4.12109 2.88232L20.1211 2.88232C21.7854 2.88232 23.1211 4.24004 23.1211 5.8982L23.1211 9.92995C23.1211 10.4165 23.0914 11.0198 22.8683 11.5576C22.6144 12.1696 22.1276 12.6543 21.3722 12.8503C20.8376 12.9889 20.2918 12.668 20.1531 12.1334C20.0145 11.5988 20.3354 11.053 20.87 10.9143C20.9473 10.8943 20.9708 10.873 20.9741 10.8701C20.9781 10.8665 20.9968 10.8495 21.0209 10.7913C21.0822 10.6437 21.1211 10.3827 21.1211 9.92995L21.1211 5.8982C21.1211 5.32967 20.6659 4.88232 20.1211 4.88232L4.12109 4.88232C3.57625 4.88232 3.12109 5.32967 3.12109 5.8982L3.12109 9.92995C3.12109 10.3827 3.16004 10.6437 3.22128 10.7913C3.24544 10.8495 3.264 10.8664 3.26797 10.8699C3.27118 10.8728 3.29494 10.8943 3.3722 10.9143C3.90679 11.053 4.22773 11.5988 4.08905 12.1334C3.95036 12.668 3.40457 12.9889 2.86998 12.8503C2.11456 12.6543 1.62782 12.1696 1.37394 11.5576C1.15084 11.0198 1.12109 10.4165 1.12109 9.92995L1.12109 5.8982Z" fill="#E8E8E8"/>
</svg>