<svg width="178" height="42" viewBox="0 0 178 42" fill="none" xmlns="http://www.w3.org/2000/svg">
<path d="M140.062 41.1864V0.129272H145.764V41.1864H140.062Z" fill="white"/>
<path d="M164.314 41.8707C161.577 41.8707 159.144 41.2435 157.015 39.9889C154.886 38.7344 153.214 36.9857 151.997 34.7427C150.819 32.4998 150.229 29.8957 150.229 26.9305C150.229 23.8892 150.819 21.2471 151.997 19.0042C153.214 16.7232 154.886 14.9555 157.015 13.7009C159.144 12.4084 161.615 11.7621 164.428 11.7621C167.242 11.7621 169.656 12.3894 171.67 13.6439C173.685 14.8984 175.244 16.5711 176.346 18.662C177.449 20.7149 178 22.9958 178 25.5049C178 25.885 177.981 26.3032 177.943 26.7594C177.943 27.1776 177.924 27.6528 177.886 28.185H154.392V24.1363H172.298C172.184 21.7413 171.385 19.8785 169.903 18.548C168.42 17.1794 166.576 16.4951 164.371 16.4951C162.813 16.4951 161.387 16.8563 160.095 17.5786C158.802 18.2628 157.757 19.2893 156.958 20.6578C156.198 21.9884 155.818 23.6801 155.818 25.733V27.3296C155.818 29.4585 156.198 31.2643 156.958 32.7469C157.757 34.1915 158.802 35.294 160.095 36.0543C161.387 36.7766 162.794 37.1377 164.314 37.1377C166.139 37.1377 167.641 36.7386 168.819 35.9402C169.998 35.1419 170.872 34.0584 171.442 32.6899H177.145C176.65 34.4386 175.814 36.0163 174.636 37.4229C173.457 38.7914 171.993 39.8749 170.245 40.6732C168.534 41.4715 166.557 41.8707 164.314 41.8707Z" fill="white"/>
<path d="M0 41.1864L14.6551 1.26975H20.8707L35.5258 41.1864H29.4243L17.7344 8.11261L5.9875 41.1864H0ZM6.61476 31.3213L8.21143 26.7594H26.9723L28.5689 31.3213H6.61476Z" fill="white"/>
<path d="M48.6395 41.8707C46.3966 41.8707 44.4388 41.4145 42.7661 40.5021C41.1314 39.5898 39.8579 38.2212 38.9455 36.3964C38.0711 34.5717 37.6339 32.2717 37.6339 29.4965V12.4464H43.3363V28.8693C43.3363 31.5684 43.9256 33.6023 45.1041 34.9708C46.2826 36.3394 47.9743 37.0237 50.1792 37.0237C51.6618 37.0237 52.9924 36.6625 54.1708 35.9402C55.3874 35.2179 56.3378 34.1725 57.022 32.8039C57.7063 31.4354 58.0485 29.7627 58.0485 27.7858V12.4464H63.7508V41.1864H58.6757L58.2766 36.2824C57.4022 38.0311 56.1287 39.3997 54.456 40.3881C52.7833 41.3765 50.8445 41.8707 48.6395 41.8707Z" fill="white"/>
<path d="M69.2773 41.1864V12.4464H74.4094L74.9226 17.8637C75.5689 16.5711 76.4052 15.4877 77.4317 14.6133C78.4581 13.7009 79.6556 12.9976 81.0242 12.5034C82.4308 12.0092 84.0274 11.7621 85.8142 11.7621V17.8067H83.7613C82.5828 17.8067 81.4613 17.9587 80.3969 18.2628C79.3325 18.529 78.3821 19.0042 77.5457 19.6884C76.7474 20.3727 76.1201 21.3041 75.6639 22.4826C75.2077 23.6611 74.9796 25.1247 74.9796 26.8734V41.1864H69.2773Z" fill="white"/>
<path d="M136.357 24.0625C135.445 20.9478 133.429 18.2717 130.688 16.5338C127.947 14.7959 124.667 14.1149 121.46 14.6181C118.254 15.1212 115.34 16.774 113.263 19.268C111.185 21.762 110.087 24.9267 110.172 28.1714C110.257 31.416 111.519 34.5189 113.724 36.9007C115.929 39.2826 118.926 40.7806 122.154 41.1152C125.383 41.4498 128.623 40.5981 131.269 38.7191C133.916 36.8401 135.788 34.0622 136.537 30.904L132.272 29.8932C131.769 32.0158 130.511 33.8828 128.732 35.1456C126.953 36.4085 124.776 36.9809 122.606 36.756C120.436 36.5311 118.422 35.5243 116.94 33.9235C115.459 32.3227 114.61 30.2373 114.553 28.0566C114.496 25.8759 115.234 23.749 116.63 22.0728C118.026 20.3967 119.985 19.2858 122.14 18.9477C124.295 18.6095 126.499 19.0672 128.341 20.2352C130.184 21.4032 131.538 23.2018 132.152 25.2951L136.357 24.0625Z" fill="white"/>
<path d="M110.247 27.8215C110.247 35.2027 104.264 41.1864 96.8823 41.1864C89.5011 41.1864 83.5174 35.2027 83.5174 27.8215C83.5174 20.4402 89.5011 14.4565 96.8823 14.4565C104.264 14.4565 110.247 20.4402 110.247 27.8215ZM87.8999 27.8215C87.8999 32.7823 91.9215 36.8039 96.8823 36.8039C101.843 36.8039 105.865 32.7823 105.865 27.8215C105.865 22.8606 101.843 18.8391 96.8823 18.8391C91.9215 18.8391 87.8999 22.8606 87.8999 27.8215Z" fill="white"/>
<path d="M126.911 30.2215C126.911 31.8175 125.618 33.1113 124.022 33.1113C122.426 33.1113 121.132 31.8175 121.132 30.2215C121.132 28.6256 122.426 27.3318 124.022 27.3318C125.618 27.3318 126.911 28.6256 126.911 30.2215Z" fill="black"/>
<path d="M126.189 30.944C126.189 31.7419 125.542 32.3888 124.744 32.3888C123.946 32.3888 123.299 31.7419 123.299 30.944C123.299 30.146 123.946 29.4991 124.744 29.4991C125.542 29.4991 126.189 30.146 126.189 30.944Z" fill="white"/>
<path d="M101.578 29.6275C101.578 31.2235 100.284 32.5173 98.6884 32.5173C97.0925 32.5173 95.7987 31.2235 95.7987 29.6275C95.7987 28.0316 97.0925 26.7378 98.6884 26.7378C100.284 26.7378 101.578 28.0316 101.578 29.6275Z" fill="black"/>
<path d="M100.856 30.35C100.856 31.1479 100.209 31.7948 99.4108 31.7948C98.6129 31.7948 97.966 31.1479 97.966 30.35C97.966 29.552 98.6129 28.9051 99.4108 28.9051C100.209 28.9051 100.856 29.552 100.856 30.35Z" fill="white"/>
<path d="M106.346 28.1185H110.504V41.1864H106.346V28.1185Z" fill="white"/>
</svg>
