<svg width="22" height="22" viewBox="0 0 22 22" fill="none" xmlns="http://www.w3.org/2000/svg">
<path fill-rule="evenodd" clip-rule="evenodd" d="M10.75 21.5C4.81294 21.5 0 16.6871 0 10.75C0 4.81294 4.81294 0 10.75 0C16.6871 0 21.5 4.81294 21.5 10.75C21.5 16.6871 16.6871 21.5 10.75 21.5ZM7.75 16C6.7835 16 6 15.2165 6 14.25V9.6008C6 9.2034 6.13524 8.81786 6.38348 8.50756L10.1643 3.78148C10.4174 3.46515 10.8759 3.40694 11.2 3.65L11.3138 3.73535C12.6975 4.77315 13.1919 6.62274 12.5106 8.21255L12.3874 8.5H15.321C16.5361 8.5 17.3814 9.7079 16.9652 10.8494L15.5068 14.8494C15.255 15.5403 14.598 16 13.8627 16H7.75Z" fill="#16974D"/>
</svg>
